<svg width="76" height="58" viewBox="0 0 76 58" fill="none" xmlns="http://www.w3.org/2000/svg">
<path d="M39.7003 17.616L39.6923 19H32.5723V7.512H39.6923V8.896H34.2843V12.536H38.6363V13.872H34.2843V17.616H39.7003ZM46.2866 17.632C46.7453 17.632 47.156 17.5547 47.5186 17.4C47.8813 17.2453 48.188 17.0293 48.4386 16.752C48.6893 16.4693 48.8813 16.136 49.0146 15.752C49.148 15.3627 49.2146 14.9333 49.2146 14.464V7.512H50.9106V14.464C50.9106 15.136 50.804 15.7573 50.5906 16.328C50.3773 16.8987 50.0706 17.392 49.6706 17.808C49.2706 18.224 48.7853 18.5493 48.2146 18.784C47.644 19.0187 47.0013 19.136 46.2866 19.136C45.572 19.136 44.9293 19.0187 44.3586 18.784C43.788 18.5493 43.3026 18.224 42.9026 17.808C42.5026 17.392 42.196 16.8987 41.9826 16.328C41.7693 15.7573 41.6626 15.136 41.6626 14.464V7.512H43.3666V14.456C43.3666 14.9253 43.4306 15.3547 43.5586 15.744C43.692 16.1333 43.884 16.4693 44.1346 16.752C44.3853 17.0293 44.692 17.2453 45.0546 17.4C45.4173 17.5547 45.828 17.632 46.2866 17.632ZM56.8595 13.048C57.2968 13.048 57.6808 12.9947 58.0115 12.888C58.3475 12.7813 58.6275 12.632 58.8515 12.44C59.0755 12.2427 59.2435 12.0107 59.3555 11.744C59.4675 11.472 59.5235 11.1733 59.5235 10.848C59.5235 10.1867 59.3048 9.688 58.8675 9.352C58.4355 9.016 57.7848 8.848 56.9155 8.848H55.3075V13.048H56.8595ZM62.2195 19H60.6995C60.3955 19 60.1742 18.88 60.0355 18.64L57.1955 14.656C57.1048 14.5227 57.0062 14.4293 56.8995 14.376C56.7928 14.3173 56.6328 14.288 56.4195 14.288H55.3075V19H53.6035V7.512H56.9155C57.6568 7.512 58.2942 7.58933 58.8275 7.744C59.3662 7.89333 59.8088 8.10933 60.1555 8.392C60.5075 8.66933 60.7662 9.00533 60.9315 9.4C61.1022 9.79467 61.1875 10.2373 61.1875 10.728C61.1875 11.128 61.1262 11.504 61.0035 11.856C60.8808 12.208 60.6995 12.5253 60.4595 12.808C60.2248 13.0853 59.9368 13.3253 59.5955 13.528C59.2542 13.7307 58.8675 13.8853 58.4355 13.992C58.6488 14.12 58.8328 14.2987 58.9875 14.528L62.2195 19ZM74.2763 13.256C74.2763 14.1147 74.1376 14.904 73.8603 15.624C73.5883 16.3387 73.2016 16.9573 72.7003 17.48C72.1989 17.9973 71.5989 18.4 70.9003 18.688C70.2016 18.976 69.4256 19.12 68.5723 19.12C67.7243 19.12 66.9483 18.976 66.2443 18.688C65.5456 18.4 64.9456 17.9973 64.4443 17.48C63.9483 16.9573 63.5616 16.3387 63.2843 15.624C63.0069 14.904 62.8683 14.1147 62.8683 13.256C62.8683 12.4027 63.0069 11.616 63.2843 10.896C63.5616 10.176 63.9483 9.55733 64.4443 9.04C64.9456 8.51733 65.5456 8.112 66.2443 7.824C66.9483 7.53067 67.7243 7.384 68.5723 7.384C69.4256 7.384 70.2016 7.53067 70.9003 7.824C71.5989 8.112 72.1989 8.51733 72.7003 9.04C73.2016 9.55733 73.5883 10.176 73.8603 10.896C74.1376 11.616 74.2763 12.4027 74.2763 13.256ZM72.5323 13.256C72.5323 12.5733 72.4389 11.96 72.2523 11.416C72.0656 10.872 71.7989 10.4107 71.4523 10.032C71.1109 9.65333 70.6949 9.36267 70.2043 9.16C69.7189 8.95733 69.1749 8.856 68.5723 8.856C67.9696 8.856 67.4229 8.95733 66.9323 9.16C66.4469 9.36267 66.0309 9.65333 65.6843 10.032C65.3376 10.4107 65.0709 10.872 64.8843 11.416C64.6976 11.96 64.6043 12.5733 64.6043 13.256C64.6043 13.944 64.6976 14.56 64.8843 15.104C65.0709 15.6427 65.3376 16.1013 65.6843 16.48C66.0309 16.8587 66.4469 17.1493 66.9323 17.352C67.4229 17.5493 67.9696 17.648 68.5723 17.648C69.1749 17.648 69.7189 17.5493 70.2043 17.352C70.6949 17.1493 71.1109 16.8587 71.4523 16.48C71.7989 16.1013 72.0656 15.6427 72.2523 15.104C72.4389 14.56 72.5323 13.944 72.5323 13.256ZM54.565 32.256C54.565 33.1147 54.4263 33.896 54.149 34.6C53.877 35.304 53.4903 35.9093 52.989 36.416C52.4877 36.9173 51.8877 37.3067 51.189 37.584C50.4903 37.8613 49.7143 38 48.861 38H44.541V26.512H48.861C49.7143 26.512 50.4903 26.6507 51.189 26.928C51.8877 27.2053 52.4877 27.5973 52.989 28.104C53.4903 28.6053 53.877 29.2107 54.149 29.92C54.4263 30.624 54.565 31.4027 54.565 32.256ZM52.821 32.256C52.821 31.5733 52.7277 30.9627 52.541 30.424C52.3543 29.88 52.0877 29.4213 51.741 29.048C51.3997 28.6693 50.9837 28.3813 50.493 28.184C50.0077 27.9867 49.4637 27.888 48.861 27.888H46.253V36.624H48.861C49.4637 36.624 50.0077 36.5253 50.493 36.328C50.9837 36.1307 51.3997 35.8453 51.741 35.472C52.0877 35.0933 52.3543 34.6347 52.541 34.096C52.7277 33.5573 52.821 32.944 52.821 32.256ZM59.9689 32.048C60.4062 32.048 60.7902 31.9947 61.1209 31.888C61.4569 31.7813 61.7369 31.632 61.9609 31.44C62.1849 31.2427 62.3529 31.0107 62.4649 30.744C62.5769 30.472 62.6329 30.1733 62.6329 29.848C62.6329 29.1867 62.4142 28.688 61.9769 28.352C61.5449 28.016 60.8942 27.848 60.0249 27.848H58.4169V32.048H59.9689ZM65.3289 38H63.8089C63.5049 38 63.2835 37.88 63.1449 37.64L60.3049 33.656C60.2142 33.5227 60.1155 33.4293 60.0089 33.376C59.9022 33.3173 59.7422 33.288 59.5289 33.288H58.4169V38H56.7129V26.512H60.0249C60.7662 26.512 61.4035 26.5893 61.9369 26.744C62.4755 26.8933 62.9182 27.1093 63.2649 27.392C63.6169 27.6693 63.8755 28.0053 64.0409 28.4C64.2115 28.7947 64.2969 29.2373 64.2969 29.728C64.2969 30.128 64.2355 30.504 64.1129 30.856C63.9902 31.208 63.8089 31.5253 63.5689 31.808C63.3342 32.0853 63.0462 32.3253 62.7049 32.528C62.3635 32.7307 61.9769 32.8853 61.5449 32.992C61.7582 33.12 61.9422 33.2987 62.0969 33.528L65.3289 38ZM70.8099 33.456V38H69.1139V33.456L64.9059 26.512H66.4019C66.5512 26.512 66.6712 26.5493 66.7619 26.624C66.8525 26.6933 66.9272 26.7867 66.9859 26.904L69.4819 31.2C69.5832 31.3973 69.6739 31.584 69.7539 31.76C69.8392 31.936 69.9139 32.1093 69.9779 32.28C70.0365 32.1093 70.1032 31.936 70.1779 31.76C70.2579 31.584 70.3485 31.3973 70.4499 31.2L72.9379 26.904C72.9912 26.808 73.0632 26.72 73.1539 26.64C73.2499 26.5547 73.3699 26.512 73.5139 26.512H75.0179L70.8099 33.456ZM9.22125 54.536C9.31725 54.536 9.39992 54.5733 9.46925 54.648L10.1413 55.384C9.67192 55.9387 9.09858 56.368 8.42125 56.672C7.74925 56.976 6.93858 57.128 5.98925 57.128C5.15725 57.128 4.40258 56.984 3.72525 56.696C3.05325 56.408 2.47725 56.0053 1.99725 55.488C1.52258 54.9707 1.15458 54.352 0.89325 53.632C0.631917 52.912 0.50125 52.12 0.50125 51.256C0.50125 50.392 0.63725 49.6 0.90925 48.88C1.18658 48.16 1.57325 47.5413 2.06925 47.024C2.56525 46.5067 3.15725 46.104 3.84525 45.816C4.53858 45.528 5.30392 45.384 6.14125 45.384C6.95725 45.384 7.68258 45.5173 8.31725 45.784C8.95192 46.0507 9.50392 46.4053 9.97325 46.848L9.41325 47.64C9.37592 47.6987 9.32792 47.7467 9.26925 47.784C9.21592 47.8213 9.14392 47.84 9.05325 47.84C8.95192 47.84 8.83192 47.7893 8.69325 47.688C8.55992 47.5867 8.38125 47.4747 8.15725 47.352C7.93858 47.224 7.66658 47.1093 7.34125 47.008C7.01592 46.9067 6.61058 46.856 6.12525 46.856C5.55458 46.856 5.03192 46.9573 4.55725 47.16C4.08258 47.3573 3.67192 47.6453 3.32525 48.024C2.98392 48.3973 2.71725 48.8587 2.52525 49.408C2.33858 49.952 2.24525 50.568 2.24525 51.256C2.24525 51.9547 2.34392 52.576 2.54125 53.12C2.73858 53.664 3.01058 54.1253 3.35725 54.504C3.70392 54.8827 4.11192 55.1707 4.58125 55.368C5.05058 55.5653 5.55725 55.664 6.10125 55.664C6.43192 55.664 6.72792 55.6453 6.98925 55.608C7.25592 55.5653 7.49858 55.504 7.71725 55.424C7.94125 55.344 8.15192 55.2427 8.34925 55.12C8.54658 54.992 8.74125 54.84 8.93325 54.664C8.97592 54.6267 9.02125 54.5973 9.06925 54.576C9.11725 54.5493 9.16792 54.536 9.22125 54.536ZM13.1335 45.192V57H11.5655V45.192H13.1335ZM22.6846 55.616L22.6766 57H15.5566V45.512H22.6766V46.896H17.2686V50.536H21.6206V51.872H17.2686V55.616H22.6846ZM30.895 52.72L29.191 48.264C29.0683 47.96 28.9457 47.576 28.823 47.112C28.7643 47.3413 28.703 47.5547 28.639 47.752C28.5803 47.9493 28.5217 48.1253 28.463 48.28L26.767 52.72H30.895ZM34.263 57H32.951C32.8017 57 32.679 56.9627 32.583 56.888C32.487 56.8133 32.4177 56.7173 32.375 56.6L31.359 53.936H26.295L25.279 56.6C25.2417 56.7013 25.1723 56.7947 25.071 56.88C24.9697 56.96 24.847 57 24.703 57H23.391L27.967 45.512H29.687L34.263 57ZM45.1053 45.512V57H44.2413C44.1079 57 43.9959 56.976 43.9053 56.928C43.8199 56.88 43.7319 56.8027 43.6413 56.696L37.1533 48.304C37.1639 48.448 37.1719 48.5893 37.1773 48.728C37.1879 48.8667 37.1933 48.9973 37.1933 49.12V57H35.6973V45.512H36.5773C36.7266 45.512 36.8386 45.5307 36.9133 45.568C36.9879 45.6 37.0706 45.6773 37.1613 45.8L43.6653 54.2C43.6493 54.0453 43.6359 53.896 43.6253 53.752C43.6199 53.6027 43.6173 53.464 43.6173 53.336V45.512H45.1053ZM49.6593 57H47.9473V45.512H49.6593V57ZM61.9021 45.512V57H61.0381C60.9048 57 60.7928 56.976 60.7021 56.928C60.6168 56.88 60.5288 56.8027 60.4381 56.696L53.9501 48.304C53.9608 48.448 53.9688 48.5893 53.9741 48.728C53.9848 48.8667 53.9901 48.9973 53.9901 49.12V57H52.4941V45.512H53.3741C53.5235 45.512 53.6355 45.5307 53.7101 45.568C53.7848 45.6 53.8675 45.6773 53.9581 45.8L60.4621 54.2C60.4461 54.0453 60.4328 53.896 60.4221 53.752C60.4168 53.6027 60.4141 53.464 60.4141 53.336V45.512H61.9021ZM74.1201 51.408V55.888C73.5388 56.304 72.9201 56.616 72.2641 56.824C71.6081 57.0267 70.8935 57.128 70.1201 57.128C69.1921 57.128 68.3521 56.984 67.6001 56.696C66.8535 56.408 66.2161 56.0053 65.6881 55.488C65.1601 54.9707 64.7521 54.352 64.4641 53.632C64.1815 52.912 64.0401 52.12 64.0401 51.256C64.0401 50.3867 64.1761 49.592 64.4481 48.872C64.7255 48.1467 65.1201 47.528 65.6321 47.016C66.1441 46.4987 66.7628 46.0987 67.4881 45.816C68.2188 45.528 69.0375 45.384 69.9441 45.384C70.4028 45.384 70.8268 45.4187 71.2161 45.488C71.6108 45.5573 71.9761 45.656 72.3121 45.784C72.6481 45.912 72.9575 46.0667 73.2401 46.248C73.5281 46.424 73.7948 46.624 74.0401 46.848L73.5521 47.616C73.4775 47.7387 73.3788 47.816 73.2561 47.848C73.1335 47.88 73.0001 47.8507 72.8561 47.76C72.7175 47.68 72.5628 47.5867 72.3921 47.48C72.2268 47.3733 72.0268 47.2747 71.7921 47.184C71.5628 47.0933 71.2935 47.016 70.9841 46.952C70.6748 46.888 70.3095 46.856 69.8881 46.856C69.2588 46.856 68.6908 46.96 68.1841 47.168C67.6775 47.3707 67.2455 47.664 66.8881 48.048C66.5308 48.432 66.2561 48.896 66.0641 49.44C65.8721 49.9787 65.7761 50.584 65.7761 51.256C65.7761 51.96 65.8775 52.592 66.0801 53.152C66.2828 53.7067 66.5681 54.1787 66.9361 54.568C67.3095 54.952 67.7601 55.2453 68.2881 55.448C68.8215 55.6507 69.4161 55.752 70.0721 55.752C70.3281 55.752 70.5655 55.7387 70.7841 55.712C71.0081 55.68 71.2215 55.6373 71.4241 55.584C71.6268 55.5307 71.8215 55.464 72.0081 55.384C72.2001 55.304 72.3895 55.216 72.5761 55.12V52.712H70.8801C70.7735 52.712 70.6855 52.68 70.6161 52.616C70.5521 52.552 70.5201 52.472 70.5201 52.376V51.408H74.1201Z" fill="white"/>
<path d="M2.54383 9.69226L2.97964 9.44522L2.42618 8.45483L2.06987 9.5381L2.54383 9.69226ZM2.10265 11.0335L1.62869 10.8794L1.56684 11.0674L1.64939 11.2463L2.10265 11.0335ZM5.6619 18.7474L5.20864 18.9602L5.22833 19.0028L5.25564 19.041L5.6619 18.7474ZM18.4573 31.836L18.1377 32.2228L18.1397 32.2244L18.4573 31.836ZM25.071 34.263L25.0561 34.7637L25.2621 33.7991L25.071 34.263ZM19.5349 31.5594L19.8003 31.1335L19.5349 31.5594ZM12.5374 25.5312L12.8969 25.1814L12.5374 25.5312ZM6.54599 16.6309C6.28183 16.7118 6.1317 16.9918 6.21065 17.2563C6.28961 17.5208 6.56775 17.6696 6.8319 17.5887L6.54599 16.6309ZM8.50883 16.5523L8.65179 17.0312L8.79477 16.9874L8.89084 16.8722L8.50883 16.5523ZM10.0169 17.1136L10.0918 17.6083L10.1962 17.5917L10.2852 17.5342L10.0169 17.1136ZM5.57956 26.7663L5.13459 26.9962L5.13459 26.9962L5.57956 26.7663ZM7.76092 31.0554L7.31595 31.2853L8.26011 31.0544L7.76092 31.0554ZM7.79856 22.4811L8.29776 22.4801L8.29821 22.3779L8.25867 22.2839L7.79856 22.4811ZM7.34427 21.4012L7.71495 21.0634L6.88416 21.5985L7.34427 21.4012ZM8.40164 22.5703L8.88883 22.6763L8.94505 22.4235L8.77232 22.2325L8.40164 22.5703ZM7.78333 25.9517L7.28413 25.9527L7.78333 25.9517ZM9.28622 30.6481L9.72267 30.4022L9.28622 30.6481ZM10.8397 32.847L11.208 32.5067L10.8397 32.847ZM15.1011 35.6575L14.8909 36.1131L15.468 35.3155L15.1011 35.6575ZM13.5627 33.6436L13.9998 33.399L13.5627 33.6436ZM12.6344 27.852L13.1331 27.872L13.1368 27.7907L13.1147 27.7126L12.6344 27.852ZM12.3772 26.942L12.8576 26.8025L11.8945 27.0727L12.3772 26.942ZM13.4745 30.2971L13.9326 30.0952L13.4745 30.2971ZM16.02 34.5556L16.393 34.2204L16.02 34.5556ZM20.6907 37.8908L20.8592 37.4183L20.8592 37.4183L20.6907 37.8908ZM23.7628 38.4718L23.7154 38.9706L25.4243 39.1231L24.0694 38.0745L23.7628 38.4718ZM21.0033 36.0945L21.3595 35.7413L21.0033 36.0945ZM18.2521 32.6916L18.7218 32.5188L18.2521 32.6916ZM17.9949 31.7815L18.3872 31.4692L17.509 31.8993L17.9949 31.7815ZM19.9276 34.135L20.3039 33.8035L19.9276 34.135ZM22.5351 36.8977L22.9642 36.6389L22.933 36.5866L22.8902 36.5434L22.5351 36.8977ZM23.96 38.6416L23.659 39.0431L23.96 38.6416ZM28.5875 39.1854L28.6704 39.6787L28.7135 39.6711L28.7546 39.6562L28.5875 39.1854ZM27.7925 37.2956L28.0366 36.8572L28.0366 36.8572L27.7925 37.2956ZM25.5257 35.3428L25.8523 34.9619L25.5257 35.3428ZM24.2444 34.239L24.2895 33.74L22.7451 33.6096L23.9178 34.6199L24.2444 34.239ZM25.352 34.3325L25.4121 33.835L25.4046 33.8341L25.3971 33.8335L25.352 34.3325ZM29.4633 35.2923L29.2617 35.7517L29.4633 35.2923ZM32.2613 37.0142L32.1556 37.5043L32.2613 37.0142ZM35.5241 36.5544L35.7837 36.9805L35.8106 36.9639L35.8351 36.9441L35.5241 36.5544ZM34.1274 37.4168L34.3433 37.8669L34.1274 37.4168ZM37.0729 35.3067L37.3839 35.6963L37.8385 35.3301L37.4119 34.9369L37.0729 35.3067ZM35.9887 34.3727L36.2952 33.9754L35.9887 34.3727ZM33.767 32.9751L33.9922 32.5267L33.9751 32.5182L33.9574 32.511L33.767 32.9751ZM28.8053 32.832L28.8229 32.3314L28.7949 32.3306L28.7669 32.3329L28.8053 32.832ZM25.7097 33.0914L25.7144 33.5921L25.7312 33.5919L25.748 33.5905L25.7097 33.0914ZM22.9632 33.1353L22.7504 33.5897L22.8537 33.6378L22.9679 33.636L22.9632 33.1353ZM19.9145 31.7138L19.5879 32.0946L19.6397 32.1393L19.7017 32.1682L19.9145 31.7138ZM19.4217 31.2893L19.4462 30.7889L18.0004 30.7271L19.0951 31.6701L19.4217 31.2893ZM23.8371 31.4782L23.8126 31.9786L23.844 31.9799L23.8754 31.9773L23.8371 31.4782ZM27.6611 31.1577L27.6372 30.6577L27.63 30.6581L27.6227 30.6587L27.6611 31.1577ZM30.8553 30.9832L31.218 30.6367L31.2008 30.6186L31.1819 30.6024L30.8553 30.9832ZM32.1366 32.087L31.8493 32.4984L32.1366 32.087ZM28.2929 28.7757L28.0618 29.2211L28.2929 28.7757ZM24.053 27.3609L24.2133 26.8856L24.1246 26.856L24.0309 26.8607L24.053 27.3609ZM21.223 27.5049L21.2009 27.0047L21.1947 27.0051L21.223 27.5049ZM17.2704 27.3703L17.1742 27.8624L17.2704 27.3703ZM14.4488 26.4888L14.634 26.0226L14.6172 26.016L14.6 26.0106L14.4488 26.4888ZM13.5083 26.195L13.1817 26.5758L13.2593 26.6427L13.3571 26.6732L13.5083 26.195ZM11.5372 24.4969L11.6393 24.0061L9.75389 23.6229L11.2105 24.8777L11.5372 24.4969ZM16.1797 25.2258L16.2254 24.7268L16.1797 25.2258ZM20.8607 25.2993L20.772 25.7927L20.8607 25.2993ZM26.1729 28.0683L26.0126 28.5436L26.0493 28.5558L26.0875 28.5622L26.1729 28.0683ZM23.8493 25.9805L24.0416 25.5171L23.8493 25.9805ZM22.355 25.6399L22.2414 26.1283L22.282 26.1375L22.3236 26.1399L22.355 25.6399ZM19.9437 24.165L20.2055 23.737L20.1468 23.7011L20.0806 23.6826L19.9437 24.165ZM16.0981 23.0899L16.2349 22.6074L16.1908 22.595L16.1451 22.591L16.0981 23.0899ZM12.3595 22.2561C12.0851 22.2318 11.8415 22.4355 11.8155 22.711C11.7895 22.9865 11.991 23.2296 12.2655 23.2538L12.3595 22.2561ZM22.129 23.982L22.2129 24.4751L23.5198 24.2431L22.3905 23.5537L22.129 23.982ZM20.0715 22.7259L20.333 22.2976L20.2985 22.2765L20.2609 22.2613L20.0715 22.7259ZM15.171 20.7419L15.3604 20.2773L15.3296 20.2649L15.2974 20.2566L15.171 20.7419ZM13.1809 20.2324L13.3072 19.7471L13.2812 19.7404L13.2546 19.7366L13.1809 20.2324ZM8.86644 19.614L8.69049 20.0838L8.74019 20.1023L8.79272 20.1098L8.86644 19.614ZM7.81277 19.2227L7.98873 18.7529L7.88947 18.7161L7.78358 18.723L7.81277 19.2227ZM11.9538 17.8899L12.1512 17.4286L12.0356 17.3794L11.9102 17.3913L11.9538 17.8899ZM15.7139 19.4888L16.0959 19.8087L16.5285 19.29L15.9113 19.0275L15.7139 19.4888ZM15.3601 19.913L15.5599 20.3707L15.6669 20.3231L15.7421 20.2329L15.3601 19.913ZM5.00894 19.7338L5.42418 20.0091L5.47847 19.9271L5.49804 19.8309L5.00894 19.7338ZM4.35563 20.7202L4.14524 21.1757L4.53333 21.3541L4.77087 20.9955L4.35563 20.7202ZM5.29887 21.2814L5.76536 21.4566L5.78111 21.4151L5.78934 21.3714L5.29887 21.2814ZM4.7727 22.6704L5.1867 22.9475L5.21877 22.8996L5.2392 22.8457L4.7727 22.6704ZM2.06987 9.5381L1.62869 10.8794L2.57661 11.1877L3.01778 9.84642L2.06987 9.5381ZM1.64939 11.2463L5.20864 18.9602L6.11516 18.5346L2.55591 10.8208L1.64939 11.2463ZM5.25564 19.041C6.32846 20.5414 8.56161 23.6773 8.97296 24.3025L9.8073 23.7471C9.38216 23.1009 7.13228 19.9419 6.06816 18.4537L5.25564 19.041ZM8.97296 24.3025C9.02992 24.3891 9.12238 24.4871 9.20501 24.5708C9.29847 24.6655 9.41865 24.7806 9.55927 24.9113C9.84105 25.1733 10.2174 25.5094 10.6536 25.8916C11.5265 26.6566 12.6494 27.6153 13.7573 28.5525C14.8657 29.4901 15.9607 30.4076 16.7786 31.0907C17.1875 31.4322 17.5272 31.7152 17.7648 31.9128C17.8835 32.0116 17.9767 32.0891 18.0403 32.1418C18.072 32.1682 18.0964 32.1885 18.1128 32.2021C18.121 32.2089 18.1272 32.2141 18.1314 32.2175C18.1335 32.2193 18.1351 32.2206 18.1361 32.2215C18.1367 32.2219 18.1371 32.2222 18.1373 32.2225C18.1375 32.2226 18.1376 32.2227 18.1376 32.2227C18.1377 32.2228 18.1377 32.2228 18.4573 31.836C18.777 31.4493 18.7769 31.4492 18.7769 31.4492C18.7768 31.4491 18.7767 31.4491 18.7766 31.4489C18.7763 31.4487 18.7759 31.4484 18.7754 31.448C18.7744 31.4471 18.7728 31.4458 18.7707 31.4441C18.7666 31.4407 18.7604 31.4355 18.7523 31.4288C18.7359 31.4152 18.7116 31.3951 18.68 31.3687C18.6166 31.3161 18.5236 31.2388 18.405 31.1401C18.1679 30.9429 17.8287 30.6603 17.4203 30.3192C16.6033 29.6369 15.51 28.7209 14.4038 27.7851C13.2972 26.849 12.1795 25.8946 11.3131 25.1354C10.8796 24.7555 10.5116 24.4268 10.2404 24.1746C10.1045 24.0483 9.99595 23.944 9.91677 23.8638C9.82675 23.7726 9.80263 23.74 9.8073 23.7471L8.97296 24.3025ZM18.1397 32.2244C19.6412 33.4574 21.3723 34.0888 22.7121 34.4134C23.3844 34.5764 23.965 34.6637 24.3792 34.7104C24.5866 34.7337 24.7527 34.747 24.8685 34.7544C24.9264 34.7582 24.9718 34.7604 25.0034 34.7618C25.0192 34.7625 25.0316 34.7629 25.0405 34.7632C25.0449 34.7634 25.0484 34.7635 25.051 34.7635C25.0523 34.7636 25.0534 34.7636 25.0543 34.7636C25.0547 34.7636 25.0551 34.7636 25.0554 34.7637C25.0555 34.7637 25.0557 34.7637 25.0558 34.7637C25.056 34.7637 25.0561 34.7637 25.071 34.263C25.0859 33.7623 25.086 33.7623 25.0861 33.7623C25.0861 33.7623 25.0862 33.7624 25.0863 33.7624C25.0864 33.7624 25.0864 33.7624 25.0864 33.7624C25.0863 33.7624 25.086 33.7623 25.0855 33.7623C25.0845 33.7623 25.0826 33.7622 25.0798 33.7622C25.0742 33.762 25.0651 33.7616 25.0526 33.7611C25.0277 33.76 24.9894 33.7581 24.9388 33.7549C24.8375 33.7484 24.6872 33.7365 24.497 33.715C24.1163 33.6721 23.5774 33.5912 22.9524 33.4397C21.6974 33.1356 20.1217 32.5535 18.775 31.4477L18.1397 32.2244ZM25.071 34.263C25.2621 33.7991 25.2622 33.7991 25.2622 33.7991C25.2621 33.7991 25.2621 33.7991 25.2621 33.7991C25.262 33.7991 25.2619 33.799 25.2617 33.799C25.2613 33.7988 25.2608 33.7986 25.26 33.7983C25.2584 33.7976 25.2561 33.7966 25.2529 33.7953C25.2465 33.7927 25.2368 33.7887 25.224 33.7834C25.1985 33.7729 25.1606 33.7572 25.1115 33.7366C25.0132 33.6956 24.8702 33.6353 24.6921 33.559C24.3356 33.4063 23.8391 33.1895 23.2794 32.9333C22.1545 32.4183 20.7945 31.7532 19.8003 31.1335L19.2695 31.9852C20.3201 32.6401 21.7281 33.3268 22.8601 33.845C23.4288 34.1053 23.9329 34.3255 24.295 34.4806C24.4761 34.5581 24.6218 34.6195 24.7225 34.6616C24.7728 34.6826 24.8119 34.6988 24.8386 34.7099C24.8519 34.7154 24.8621 34.7196 24.869 34.7224C24.8725 34.7238 24.8751 34.7249 24.8769 34.7257C24.8778 34.726 24.8786 34.7263 24.879 34.7265C24.8793 34.7266 24.8795 34.7267 24.8796 34.7268C24.8797 34.7268 24.8797 34.7268 24.8798 34.7268C24.8798 34.7269 24.8799 34.7269 25.071 34.263ZM19.8003 31.1335C16.8036 29.2656 15.4071 27.7791 12.8969 25.1814L12.1779 25.8809C14.6879 28.4785 16.1587 30.0462 19.2695 31.9852L19.8003 31.1335ZM12.8969 25.1814C12.2191 24.48 12.0199 24.317 11.6625 23.9285C11.323 23.5595 10.8726 23.0168 9.79869 21.6607L9.01541 22.2868C10.0863 23.6391 10.5586 24.2102 10.9268 24.6104C11.2771 24.9911 11.5707 25.2526 12.1779 25.8809L12.8969 25.1814ZM9.79869 21.6607C8.759 20.3478 7.73244 18.5155 6.61883 16.3815C5.51332 14.2629 4.3242 11.8513 2.97964 9.44522L2.10801 9.9393C3.44371 12.3295 4.61382 14.7044 5.73366 16.8505C6.84541 18.981 7.91034 20.8914 9.01541 22.2868L9.79869 21.6607ZM6.8319 17.5887L8.65179 17.0312L8.36587 16.0734L6.54599 16.6309L6.8319 17.5887ZM8.89084 16.8722L9.72624 15.8706L8.96223 15.2308L8.12682 16.2324L8.89084 16.8722ZM6.83806 18.125L10.0918 17.6083L9.94193 16.619L6.68818 17.1357L6.83806 18.125ZM10.2852 17.5342L11.5088 16.744L10.9722 15.9029L9.74859 16.693L10.2852 17.5342ZM6.07149 19.272C5.58521 19.1619 5.58519 19.162 5.58517 19.1621C5.58515 19.1621 5.58513 19.1623 5.5851 19.1624C5.58504 19.1626 5.58497 19.163 5.58487 19.1634C5.58468 19.1642 5.58441 19.1654 5.58406 19.1669C5.58335 19.17 5.58233 19.1745 5.58101 19.1803C5.57837 19.1919 5.57452 19.2089 5.56958 19.231C5.55968 19.2752 5.54539 19.3397 5.52757 19.4222C5.49193 19.5872 5.44214 19.8241 5.38513 20.1133C5.27125 20.6912 5.12804 21.481 5.01159 22.3256C4.89545 23.1679 4.80429 24.0762 4.79786 24.888C4.79163 25.6746 4.86229 26.4608 5.13459 26.9962L6.02453 26.5365C5.87089 26.2344 5.79008 25.6651 5.79622 24.8895C5.80217 24.139 5.88723 23.2784 6.00055 22.4565C6.11357 21.6368 6.25307 20.8671 6.36453 20.3015C6.4202 20.019 6.46873 19.7881 6.50325 19.6283C6.52051 19.5484 6.53426 19.4863 6.54363 19.4445C6.54832 19.4235 6.55192 19.4076 6.55431 19.3971C6.5555 19.3919 6.5564 19.388 6.55698 19.3854C6.55727 19.3842 6.55748 19.3832 6.55762 19.3827C6.55768 19.3824 6.55773 19.3822 6.55775 19.3821C6.55777 19.382 6.55777 19.382 6.55778 19.382C6.55778 19.382 6.55777 19.382 6.07149 19.272ZM5.13459 26.9962L7.31595 31.2853L8.20589 30.8255L6.02453 26.5365L5.13459 26.9962ZM8.25867 22.2839L7.80438 21.204L6.88416 21.5985L7.33846 22.6784L8.25867 22.2839ZM6.9736 21.7391L8.03097 22.9082L8.77232 22.2325L7.71495 21.0634L6.9736 21.7391ZM8.26011 31.0544L8.28252 25.9507L7.28413 25.9527L7.26173 31.0564L8.26011 31.0544ZM8.28252 25.9507L8.29776 22.4801L7.29937 22.4822L7.28413 25.9527L8.28252 25.9507ZM7.91445 22.4643C7.81111 22.9291 7.65601 23.6569 7.52621 24.3315C7.46135 24.6686 7.40218 24.9957 7.35888 25.2717C7.31739 25.536 7.28486 25.7868 7.28413 25.9527L8.28252 25.9507C8.28287 25.8716 8.30251 25.6926 8.3451 25.4212C8.38587 25.1614 8.44266 24.8469 8.50647 24.5152C8.63398 23.8525 8.78697 23.1345 8.88883 22.6763L7.91445 22.4643ZM9.72267 30.4022C9.28412 29.6126 9.06835 28.9414 8.88899 28.2318C8.71196 27.5314 8.55814 26.7315 8.25872 25.7958L7.30793 26.1075C7.59543 27.006 7.72666 27.7145 7.92113 28.4839C8.11329 29.2441 8.35551 30.0041 8.84977 30.894L9.72267 30.4022ZM8.84977 30.894C9.37471 31.8392 9.72934 32.3783 10.4713 33.1874L11.208 32.5067C10.5316 31.769 10.2203 31.2983 9.72267 30.4022L8.84977 30.894ZM10.4713 33.1874C11.2015 33.9837 12.3226 34.7172 13.2262 35.2397C13.6843 35.5045 14.0988 35.7221 14.3989 35.8735C14.549 35.9492 14.671 36.0086 14.7558 36.0493C14.7983 36.0697 14.8315 36.0854 14.8544 36.0961C14.8658 36.1014 14.8747 36.1056 14.8808 36.1084C14.8839 36.1098 14.8863 36.1109 14.8879 36.1117C14.8888 36.1121 14.8895 36.1124 14.89 36.1126C14.8902 36.1128 14.8904 36.1128 14.8906 36.1129C14.8907 36.113 14.8907 36.113 14.8908 36.113C14.8909 36.1131 14.8909 36.1131 15.1011 35.6575C15.3112 35.2019 15.3113 35.2019 15.3113 35.2019C15.3113 35.2019 15.3113 35.2019 15.3113 35.2019C15.3113 35.2019 15.3112 35.2019 15.3111 35.2018C15.3109 35.2017 15.3105 35.2015 15.31 35.2013C15.3088 35.2008 15.307 35.1999 15.3046 35.1988C15.2996 35.1965 15.292 35.1929 15.2818 35.1881C15.2614 35.1786 15.2308 35.1641 15.191 35.1451C15.1115 35.107 14.9956 35.0505 14.852 34.9781C14.5644 34.833 14.1671 34.6244 13.7289 34.3711C12.84 33.8571 11.8304 33.1854 11.208 32.5067L10.4713 33.1874ZM15.1011 35.6575C15.468 35.3155 15.468 35.3156 15.468 35.3156C15.468 35.3156 15.468 35.3156 15.4681 35.3156C15.4681 35.3156 15.468 35.3156 15.468 35.3156C15.4679 35.3155 15.4678 35.3154 15.4676 35.3152C15.4673 35.3147 15.4666 35.3141 15.4658 35.3131C15.464 35.3112 15.4613 35.3083 15.4577 35.3043C15.4504 35.2963 15.4394 35.2843 15.425 35.2685C15.3964 35.2368 15.3545 35.1903 15.3026 35.1315C15.1987 35.0138 15.0553 34.848 14.8974 34.6561C14.5762 34.2654 14.2161 33.7911 13.9998 33.399L13.1255 33.8882C13.3882 34.3646 13.7974 34.8973 14.1256 35.2964C14.2924 35.4993 14.4437 35.6742 14.5535 35.7984C14.6084 35.8606 14.653 35.9103 14.6842 35.9447C14.6998 35.9619 14.712 35.9753 14.7204 35.9845C14.7247 35.9891 14.728 35.9927 14.7303 35.9952C14.7314 35.9964 14.7323 35.9974 14.733 35.9981C14.7333 35.9985 14.7335 35.9987 14.7337 35.999C14.7338 35.9991 14.7339 35.9992 14.734 35.9992C14.734 35.9993 14.7341 35.9993 14.7341 35.9993C14.7341 35.9994 14.7341 35.9994 15.1011 35.6575ZM13.9998 33.399C13.5124 32.5153 13.2842 31.1914 13.1877 30.0165C13.0927 28.8601 13.1307 27.9272 13.133 27.8739L12.1355 27.837C12.1323 27.9114 12.0929 28.8904 12.1926 30.1051C12.2909 31.3013 12.5295 32.8077 13.1255 33.8882L13.9998 33.399ZM13.133 27.8739C13.133 27.873 13.133 27.8724 13.1331 27.8721C13.1331 27.8719 13.1331 27.8718 13.1331 27.8718C13.1331 27.8718 13.1331 27.8718 13.1331 27.8718C13.1331 27.8719 13.1331 27.8719 13.1331 27.8719C13.1331 27.8719 13.1331 27.8719 13.1331 27.8719C13.1331 27.8719 13.1331 27.8719 13.1331 27.872C13.1331 27.872 13.1331 27.872 13.1331 27.872C13.1331 27.872 13.1331 27.872 13.1331 27.872C13.1331 27.872 13.1331 27.872 13.1331 27.872C13.1331 27.872 13.1331 27.872 12.6344 27.852C12.1357 27.8321 12.1357 27.8321 12.1357 27.8321C12.1357 27.8321 12.1357 27.8321 12.1357 27.8321C12.1357 27.8321 12.1357 27.8321 12.1357 27.8321C12.1357 27.8321 12.1357 27.8321 12.1357 27.8321C12.1357 27.8321 12.1357 27.8322 12.1357 27.8322C12.1357 27.8322 12.1357 27.8322 12.1357 27.8322C12.1357 27.8323 12.1357 27.8323 12.1357 27.8323C12.1357 27.8324 12.1357 27.8326 12.1357 27.8327C12.1357 27.833 12.1357 27.8333 12.1357 27.8337C12.1356 27.8345 12.1356 27.8356 12.1355 27.837L13.133 27.8739ZM13.1147 27.7126L12.8576 26.8025L11.8969 27.0814L12.1541 27.9915L13.1147 27.7126ZM12.3772 26.942C11.8945 27.0727 11.8945 27.0727 11.8945 27.0728C11.8945 27.0728 11.8945 27.0728 11.8945 27.0728C11.8945 27.0728 11.8945 27.0728 11.8946 27.0729C11.8946 27.073 11.8946 27.0731 11.8946 27.0732C11.8947 27.0734 11.8948 27.0737 11.8949 27.0742C11.8951 27.075 11.8954 27.0762 11.8958 27.0778C11.8967 27.0809 11.8979 27.0854 11.8995 27.0914C11.9026 27.1032 11.9073 27.1206 11.9133 27.1431C11.9254 27.188 11.9431 27.2532 11.9657 27.3351C12.0109 27.4989 12.0759 27.7301 12.1554 28.0001L13.1131 27.7108C13.0355 27.4471 12.972 27.2215 12.928 27.062C12.906 26.9823 12.8889 26.9192 12.8773 26.8762C12.8715 26.8547 12.8671 26.8382 12.8642 26.8273C12.8627 26.8218 12.8616 26.8176 12.8609 26.8149C12.8606 26.8136 12.8603 26.8126 12.8601 26.812C12.8601 26.8116 12.86 26.8114 12.86 26.8113C12.8599 26.8112 12.8599 26.8112 12.8599 26.8112C12.8599 26.8112 12.8599 26.8111 12.8599 26.8111L12.8599 26.8112C12.8599 26.8112 12.8599 26.8112 12.3772 26.942ZM12.1554 28.0001C12.3674 28.7206 12.6895 29.7435 13.0163 30.4989L13.9326 30.0952C13.6319 29.4 13.324 28.4276 13.1131 27.7108L12.1554 28.0001ZM13.0163 30.4989C13.7934 32.2954 14.3079 33.3891 15.647 34.8909L16.393 34.2204C15.1607 32.8384 14.6966 31.8614 13.9326 30.0952L13.0163 30.4989ZM15.647 34.8909C17.1768 36.6065 18.3111 37.5818 20.5221 38.3632L20.8592 37.4183C18.8592 36.7114 17.8571 35.8624 16.393 34.2204L15.647 34.8909ZM20.5221 38.3632C21.7052 38.7814 23.601 38.96 23.7075 38.9699L23.8061 37.9726C23.676 37.9605 21.9063 37.7884 20.8592 37.4183L20.5221 38.3632ZM23.7075 38.9699C23.7098 38.9701 23.7117 38.9703 23.713 38.9704C23.7136 38.9705 23.7142 38.9705 23.7146 38.9705C23.7148 38.9706 23.715 38.9706 23.7151 38.9706C23.7152 38.9706 23.7152 38.9706 23.7153 38.9706C23.7153 38.9706 23.7153 38.9706 23.7154 38.9706C23.7154 38.9706 23.7154 38.9706 23.7154 38.9706C23.7154 38.9706 23.7154 38.9706 23.7154 38.9706C23.7154 38.9706 23.7154 38.9706 23.7154 38.9706C23.7154 38.9706 23.7154 38.9706 23.7154 38.9706C23.7154 38.9706 23.7154 38.9706 23.7628 38.4718C23.8103 37.9729 23.8103 37.9729 23.8103 37.973C23.8103 37.973 23.8103 37.973 23.8103 37.973C23.8103 37.973 23.8103 37.9729 23.8103 37.9729C23.8103 37.973 23.8103 37.973 23.8103 37.973C23.8103 37.973 23.8103 37.973 23.8103 37.973C23.8103 37.973 23.8103 37.973 23.8103 37.973C23.8104 37.973 23.8104 37.973 23.8104 37.973C23.8104 37.973 23.8104 37.973 23.8103 37.973C23.8102 37.9729 23.81 37.9729 23.8097 37.9729C23.809 37.9728 23.8078 37.9727 23.8061 37.9726L23.7075 38.9699ZM23.7628 38.4718C24.0694 38.0745 24.0694 38.0745 24.0694 38.0745L24.0694 38.0745C24.0694 38.0745 24.0694 38.0745 24.0694 38.0745C24.0694 38.0745 24.0694 38.0745 24.0694 38.0745C24.0694 38.0745 24.0694 38.0745 24.0694 38.0745C24.0694 38.0745 24.0693 38.0745 24.0693 38.0745C24.0692 38.0744 24.0691 38.0744 24.069 38.0742C24.0687 38.074 24.0682 38.0736 24.0676 38.0731C24.0663 38.0721 24.0643 38.0706 24.0616 38.0685C24.0563 38.0644 24.0482 38.0581 24.0377 38.0499L23.4217 38.8421C23.4328 38.8508 23.4413 38.8574 23.4472 38.8619C23.4501 38.8642 23.4523 38.8659 23.4538 38.8671C23.4546 38.8677 23.4552 38.8682 23.4556 38.8685C23.4558 38.8687 23.456 38.8688 23.4561 38.8689C23.4562 38.8689 23.4562 38.869 23.4563 38.869C23.4563 38.869 23.4563 38.869 23.4563 38.869C23.4563 38.869 23.4563 38.869 23.4563 38.869C23.4563 38.869 23.4563 38.869 23.4563 38.869C23.4563 38.869 23.4563 38.869 23.4563 38.869C23.4563 38.869 23.4563 38.869 23.7628 38.4718ZM24.0377 38.0499C23.7873 37.8546 22.2517 36.6473 21.3595 35.7413L20.647 36.4476C21.5921 37.4072 23.1793 38.6531 23.4217 38.8421L24.0377 38.0499ZM21.3595 35.7413C20.0829 34.4451 19.2544 33.998 18.7218 32.5188L17.7825 32.8644C18.4131 34.6157 19.5292 35.3125 20.647 36.4476L21.3595 35.7413ZM18.7218 32.5188C18.667 32.3666 18.6072 32.1566 18.5592 31.9751C18.5358 31.8863 18.516 31.8079 18.5022 31.7517C18.4953 31.7237 18.4899 31.7013 18.4862 31.6862C18.4844 31.6786 18.483 31.6728 18.4821 31.669C18.4817 31.6671 18.4813 31.6657 18.4811 31.6648C18.481 31.6643 18.481 31.664 18.4809 31.6639C18.4809 31.6638 18.4809 31.6637 18.4809 31.6637C18.4809 31.6637 18.4809 31.6637 18.4809 31.6637C18.4809 31.6637 18.4809 31.6637 18.4809 31.6637C18.4809 31.6637 18.4809 31.6637 17.9949 31.7815C17.509 31.8993 17.509 31.8993 17.509 31.8993C17.509 31.8994 17.509 31.8994 17.509 31.8994C17.509 31.8994 17.5091 31.8995 17.5091 31.8995C17.5091 31.8997 17.5091 31.8998 17.5092 31.9C17.5093 31.9004 17.5094 31.9009 17.5095 31.9015C17.5098 31.9028 17.5103 31.9046 17.5108 31.9069C17.5119 31.9115 17.5135 31.9181 17.5155 31.9266C17.5196 31.9436 17.5255 31.9679 17.5329 31.998C17.5477 32.0583 17.5689 32.1423 17.5941 32.2376C17.6434 32.4243 17.7122 32.6693 17.7825 32.8644L18.7218 32.5188ZM17.9949 31.7815C17.6027 32.0939 17.6027 32.0939 17.6028 32.0939C17.6028 32.0939 17.6028 32.0939 17.6028 32.0939C17.6028 32.094 17.6029 32.0941 17.603 32.0942C17.6031 32.0944 17.6034 32.0946 17.6036 32.095C17.6042 32.0958 17.6051 32.0968 17.6062 32.0983C17.6085 32.1011 17.6118 32.1053 17.6162 32.1109C17.6249 32.1219 17.6378 32.1382 17.6544 32.1591C17.6876 32.2011 17.7359 32.2619 17.7962 32.3376C17.9169 32.489 18.0859 32.7003 18.2795 32.9397C18.6656 33.417 19.1537 34.0115 19.5513 34.4665L20.3039 33.8035C19.9193 33.3634 19.4411 32.7811 19.0564 32.3055C18.8646 32.0684 18.6972 31.8591 18.5777 31.7092C18.5179 31.6342 18.4702 31.5741 18.4375 31.5327C18.4211 31.5121 18.4085 31.4961 18.4 31.4854C18.3957 31.48 18.3925 31.4759 18.3903 31.4732C18.3893 31.4718 18.3885 31.4708 18.3879 31.4701C18.3877 31.4698 18.3875 31.4696 18.3873 31.4694C18.3873 31.4693 18.3872 31.4693 18.3872 31.4692C18.3872 31.4692 18.3872 31.4692 18.3872 31.4692C18.3872 31.4692 18.3872 31.4692 17.9949 31.7815ZM19.5513 34.4665C20.0478 35.0347 20.7065 35.7324 21.2373 36.2844C21.5035 36.5612 21.7389 36.8029 21.9079 36.9754C21.9924 37.0617 22.0603 37.1307 22.1071 37.1782C22.1305 37.2019 22.1487 37.2203 22.161 37.2328C22.1672 37.2391 22.1719 37.2438 22.1751 37.247C22.1767 37.2487 22.1779 37.2499 22.1787 37.2507C22.1792 37.2511 22.1795 37.2514 22.1797 37.2517C22.1798 37.2518 22.1799 37.2519 22.1799 37.2519C22.18 37.2519 22.18 37.252 22.18 37.252C22.18 37.252 22.18 37.252 22.5351 36.8977C22.8902 36.5434 22.8902 36.5434 22.8902 36.5434C22.8902 36.5434 22.8902 36.5434 22.8901 36.5434C22.8901 36.5433 22.89 36.5433 22.8899 36.5432C22.8898 36.543 22.8895 36.5427 22.8891 36.5423C22.8884 36.5416 22.8872 36.5404 22.8857 36.5389C22.8827 36.5358 22.8781 36.5312 22.8721 36.5251C22.8601 36.513 22.8422 36.4949 22.8192 36.4715C22.773 36.4247 22.7059 36.3565 22.6222 36.2711C22.4549 36.1002 22.2216 35.8608 21.958 35.5866C21.4293 35.0367 20.7842 34.3531 20.3039 33.8035L19.5513 34.4665ZM22.5351 36.8977C22.1061 37.1565 22.1061 37.1565 22.1061 37.1566C22.1061 37.1566 22.1062 37.1567 22.1062 37.1567C22.1063 37.1568 22.1063 37.1569 22.1064 37.157C22.1065 37.1573 22.1067 37.1575 22.1069 37.1579C22.1073 37.1586 22.1079 37.1595 22.1086 37.1607C22.11 37.163 22.1119 37.1663 22.1144 37.1704C22.1194 37.1786 22.1265 37.1903 22.1356 37.2051C22.1539 37.2348 22.1802 37.2772 22.2136 37.3295C22.2803 37.4341 22.3757 37.5793 22.4914 37.7438C22.7191 38.0673 23.0404 38.4865 23.387 38.8124L24.0723 38.0796C23.7987 37.8223 23.5228 37.4674 23.3082 37.1625C23.2028 37.0128 23.1159 36.8803 23.0555 36.7857C23.0254 36.7385 23.002 36.7009 22.9864 36.6755C22.9786 36.6628 22.9728 36.6532 22.969 36.647C22.9671 36.6439 22.9658 36.6417 22.965 36.6403C22.9646 36.6396 22.9643 36.6392 22.9642 36.6389C22.9641 36.6388 22.9641 36.6388 22.9641 36.6388C22.9641 36.6388 22.9641 36.6388 22.9641 36.6388C22.9641 36.6388 22.9641 36.6389 22.9641 36.6389C22.9641 36.6389 22.9642 36.6389 22.5351 36.8977ZM23.387 38.8124C23.3974 38.8221 23.4077 38.8317 23.4181 38.8413L24.0955 38.1012C24.0878 38.0941 24.0801 38.0869 24.0723 38.0796L23.387 38.8124ZM23.4181 38.8413C23.4954 38.9124 23.5759 38.9806 23.659 39.0431L24.261 38.2401C24.2086 38.2008 24.1532 38.1543 24.0955 38.1012L23.4181 38.8413ZM23.659 39.0431C24.5309 39.6985 25.8362 39.8281 26.8197 39.8266C27.3291 39.8258 27.7889 39.7892 28.121 39.7529C28.2874 39.7347 28.4227 39.7165 28.5174 39.7027C28.5647 39.6958 28.6019 39.69 28.6278 39.6858C28.6408 39.6837 28.6509 39.682 28.658 39.6808C28.6616 39.6802 28.6644 39.6797 28.6665 39.6794C28.6676 39.6792 28.6684 39.6791 28.6691 39.6789C28.6694 39.6789 28.6697 39.6788 28.6699 39.6788C28.67 39.6788 28.6701 39.6788 28.6702 39.6787C28.6703 39.6787 28.6704 39.6787 28.5875 39.1854C28.5045 38.6921 28.5046 38.6921 28.5047 38.6921C28.5047 38.6921 28.5047 38.6921 28.5048 38.6921C28.5048 38.6921 28.5048 38.6921 28.5047 38.6921C28.5046 38.6921 28.5043 38.6922 28.5038 38.6922C28.5028 38.6924 28.5011 38.6927 28.4986 38.6931C28.4937 38.694 28.4859 38.6953 28.4753 38.697C28.4541 38.7004 28.4219 38.7054 28.3799 38.7116C28.2957 38.7239 28.1724 38.7405 28.0192 38.7572C27.7121 38.7908 27.2893 38.8243 26.8246 38.825C25.86 38.8265 24.8516 38.6842 24.261 38.2401L23.659 39.0431ZM28.7546 39.6562L31.4259 38.687L31.0918 37.7454L28.4204 38.7146L28.7546 39.6562ZM31.2589 38.2162C31.3147 37.7182 31.3147 37.7182 31.3148 37.7182C31.3148 37.7182 31.3148 37.7182 31.3148 37.7182C31.3148 37.7182 31.3148 37.7182 31.3147 37.7182C31.3146 37.7182 31.3144 37.7182 31.314 37.7181C31.3132 37.718 31.3119 37.7179 31.3101 37.7177C31.3065 37.7173 31.3008 37.7167 31.2931 37.7158C31.2778 37.714 31.2546 37.7113 31.2243 37.7076C31.1637 37.7001 31.0748 37.6886 30.9639 37.6726C30.7418 37.6406 30.4333 37.5911 30.0881 37.521C29.3832 37.3778 28.58 37.1593 28.0366 36.8572L27.5483 37.734C28.2324 38.1143 29.1624 38.3562 29.8839 38.5027C30.2519 38.5774 30.5797 38.6301 30.8158 38.6641C30.934 38.6811 31.0296 38.6935 31.0962 38.7017C31.1295 38.7058 31.1556 38.7089 31.1737 38.7109C31.1827 38.712 31.1897 38.7128 31.1947 38.7133C31.1971 38.7136 31.1991 38.7138 31.2005 38.7139C31.2012 38.714 31.2017 38.7141 31.2022 38.7141C31.2024 38.7142 31.2026 38.7142 31.2027 38.7142C31.2028 38.7142 31.2029 38.7142 31.2029 38.7142C31.203 38.7142 31.2031 38.7142 31.2589 38.2162ZM28.0366 36.8572C27.5791 36.6028 27.269 36.337 26.9592 36.0335C26.6564 35.7368 26.31 35.3563 25.8523 34.9619L25.199 35.7236C25.6265 36.0919 25.9046 36.4048 26.2593 36.7523C26.607 37.093 26.9878 37.4223 27.5483 37.734L28.0366 36.8572ZM25.8523 34.9619L24.571 33.8582L23.9178 34.6199L25.199 35.7236L25.8523 34.9619ZM24.1994 34.7381L25.307 34.8316L25.3971 33.8335L24.2895 33.74L24.1994 34.7381ZM25.352 34.3325C25.2919 34.8301 25.2918 34.8301 25.2918 34.83C25.2918 34.83 25.2918 34.83 25.2918 34.83C25.2918 34.83 25.2919 34.8301 25.292 34.8301C25.2922 34.8301 25.2925 34.8301 25.293 34.8302C25.2941 34.8303 25.2957 34.8305 25.2979 34.8308C25.3024 34.8313 25.3093 34.8321 25.3184 34.8332C25.3368 34.8355 25.3644 34.8389 25.4002 34.8434C25.4719 34.8526 25.5768 34.8666 25.7076 34.8854C25.9695 34.923 26.3343 34.9799 26.7451 35.057C27.5772 35.2132 28.5588 35.4451 29.2617 35.7517L29.6648 34.8328C28.8539 34.4791 27.7799 34.2311 26.9348 34.0725C26.507 33.9922 26.1278 33.933 25.8554 33.8939C25.7191 33.8743 25.6092 33.8597 25.5329 33.8499C25.4948 33.845 25.4651 33.8413 25.4447 33.8389C25.4344 33.8376 25.4266 33.8367 25.4211 33.836C25.4184 33.8357 25.4163 33.8355 25.4148 33.8353C25.414 33.8352 25.4134 33.8351 25.413 33.8351C25.4128 33.8351 25.4126 33.835 25.4124 33.835C25.4124 33.835 25.4123 33.835 25.4123 33.835C25.4122 33.835 25.4121 33.835 25.352 34.3325ZM29.2617 35.7517C29.7675 35.9724 30.0924 36.2786 30.5113 36.631C30.9254 36.9794 31.4081 37.3467 32.1556 37.5043L32.367 36.5241C31.8638 36.418 31.5344 36.1804 31.1557 35.8618C30.7816 35.5471 30.3328 35.1242 29.6648 34.8328L29.2617 35.7517ZM32.1556 37.5043C32.8235 37.6452 33.4144 37.6893 34.0035 37.6063C34.5926 37.5233 35.1496 37.3173 35.7548 36.997L35.2934 36.1118C34.7576 36.3954 34.313 36.5522 33.8709 36.6145C33.4287 36.6768 32.9588 36.6489 32.367 36.5241L32.1556 37.5043ZM35.2644 36.1284C34.6487 36.5086 34.463 36.6977 33.9114 36.9667L34.3433 37.8669C34.9425 37.5746 35.3085 37.2739 35.7837 36.9805L35.2644 36.1284ZM33.9114 36.9667C33.4415 37.1959 32.7707 37.3857 32.1909 37.5202C31.9063 37.5862 31.6531 37.6368 31.4713 37.6709C31.3805 37.6879 31.3078 37.7007 31.2582 37.7092C31.2334 37.7134 31.2144 37.7166 31.2018 37.7187C31.1955 37.7197 31.1909 37.7205 31.1879 37.7209C31.1864 37.7212 31.1853 37.7214 31.1847 37.7215C31.1844 37.7215 31.1842 37.7215 31.1841 37.7216C31.184 37.7216 31.184 37.7216 31.184 37.7216C31.184 37.7216 31.184 37.7216 31.184 37.7216C31.1841 37.7216 31.1841 37.7216 31.2589 38.2162C31.3336 38.7109 31.3337 38.7109 31.3337 38.7108C31.3338 38.7108 31.3338 38.7108 31.3339 38.7108C31.334 38.7108 31.3341 38.7108 31.3343 38.7108C31.3347 38.7107 31.3351 38.7106 31.3357 38.7105C31.3368 38.7104 31.3384 38.7101 31.3403 38.7098C31.3443 38.7091 31.35 38.7082 31.3573 38.707C31.3719 38.7046 31.3931 38.7011 31.4202 38.6964C31.4743 38.6872 31.552 38.6735 31.6483 38.6554C31.8407 38.6194 32.1083 38.5659 32.4099 38.496C33.0025 38.3585 33.766 38.1485 34.3433 37.8669L33.9114 36.9667ZM35.8351 36.9441L37.3839 35.6963L36.7618 34.917L35.213 36.1648L35.8351 36.9441ZM37.0729 35.3067C37.4119 34.9369 37.4119 34.9369 37.4119 34.9369C37.4119 34.9369 37.4118 34.9368 37.4118 34.9368C37.4118 34.9368 37.4117 34.9368 37.4117 34.9367C37.4116 34.9366 37.4114 34.9365 37.4113 34.9363C37.4109 34.936 37.4104 34.9355 37.4097 34.9349C37.4084 34.9337 37.4064 34.9319 37.4039 34.9296C37.3989 34.9249 37.3915 34.9182 37.382 34.9095C37.3631 34.8922 37.3357 34.8672 37.3016 34.8362C37.2333 34.7743 37.1376 34.6882 37.0278 34.5911C36.8104 34.399 36.5294 34.1566 36.2952 33.9754L35.6823 34.77C35.8896 34.9305 36.1507 35.1551 36.365 35.3445C36.471 35.4382 36.5636 35.5215 36.6296 35.5813C36.6625 35.6112 36.6888 35.6352 36.7067 35.6516C36.7157 35.6598 36.7226 35.6661 36.7271 35.6703C36.7294 35.6724 36.7312 35.674 36.7323 35.675C36.7328 35.6755 36.7333 35.6759 36.7335 35.6762C36.7336 35.6763 36.7337 35.6764 36.7338 35.6764C36.7338 35.6764 36.7338 35.6764 36.7338 35.6764C36.7338 35.6764 36.7338 35.6764 36.7338 35.6764C36.7338 35.6764 36.7338 35.6764 37.0729 35.3067ZM36.2952 33.9754C35.458 33.3277 34.9363 32.9995 33.9922 32.5267L33.5417 33.4235C34.4283 33.8674 34.8957 34.1614 35.6823 34.77L36.2952 33.9754ZM33.7845 32.4745L28.8229 32.3314L28.7877 33.3326L33.7494 33.4757L33.7845 32.4745ZM28.7669 32.3329L25.6713 32.5924L25.748 33.5905L28.8437 33.331L28.7669 32.3329ZM25.7049 32.5907L22.9585 32.6345L22.9679 33.636L25.7144 33.5921L25.7049 32.5907ZM23.176 32.6809L20.1273 31.2594L19.7017 32.1682L22.7504 33.5897L23.176 32.6809ZM20.2411 31.333L19.7483 30.9085L19.0951 31.6701L19.5879 32.0946L20.2411 31.333ZM19.3972 31.7896L23.8126 31.9786L23.8616 30.9779L19.4462 30.7889L19.3972 31.7896ZM23.8754 31.9773L27.6995 31.6568L27.6227 30.6587L23.7987 30.9792L23.8754 31.9773ZM27.6851 31.6578L30.8793 31.4833L30.8314 30.4831L27.6372 30.6577L27.6851 31.6578ZM30.4927 31.3297C30.9708 31.8336 31.2816 32.1014 31.8493 32.4984L32.4238 31.6755C31.9108 31.3167 31.6504 31.0925 31.218 30.6367L30.4927 31.3297ZM31.8493 32.4984C32.4746 32.9356 32.8718 33.152 33.5765 33.4393L33.9574 32.511C33.3212 32.2517 32.9888 32.0707 32.4238 31.6755L31.8493 32.4984ZM31.1819 30.6024C30.6989 30.1862 30.3891 29.8245 29.9904 29.4267C29.5996 29.0368 29.1687 28.6638 28.5239 28.3302L28.0618 29.2211C28.5862 29.4923 28.9361 29.792 29.2841 30.1392C29.6242 30.4784 30.0111 30.9181 30.5287 31.364L31.1819 30.6024ZM24.0309 26.8607L21.2009 27.0047L21.2451 28.0051L24.0751 27.861L24.0309 26.8607ZM21.223 27.5049C21.1947 27.0051 21.1947 27.0051 21.1947 27.0051C21.1947 27.0051 21.1947 27.0051 21.1947 27.0051C21.1947 27.0051 21.1946 27.0051 21.1946 27.0051C21.1944 27.0051 21.194 27.0051 21.1935 27.0052C21.1926 27.0052 21.191 27.0053 21.1889 27.0055C21.1847 27.0057 21.1782 27.0061 21.1695 27.0066C21.1522 27.0076 21.1263 27.0091 21.0925 27.0109C21.0249 27.0144 20.926 27.0192 20.8024 27.0241C20.555 27.0339 20.2095 27.044 19.8176 27.0452C19.0249 27.0477 18.0764 27.0135 17.3665 26.8783L17.1742 27.8624C17.9824 28.0162 19.0102 28.0493 19.8143 28.0468C20.2208 28.0455 20.5788 28.0351 20.8353 28.0249C20.9637 28.0199 21.0669 28.0148 21.1384 28.0111C21.1741 28.0092 21.2019 28.0076 21.221 28.0065C21.2306 28.006 21.2379 28.0055 21.243 28.0052C21.2456 28.0051 21.2475 28.0049 21.2489 28.0049C21.2496 28.0048 21.2502 28.0048 21.2506 28.0048C21.2507 28.0047 21.2509 28.0047 21.251 28.0047C21.2511 28.0047 21.2512 28.0047 21.2512 28.0047C21.2513 28.0047 21.2513 28.0047 21.223 27.5049ZM17.3665 26.8783C16.8364 26.7774 16.1587 26.5668 15.5989 26.3747C15.3222 26.2798 15.0801 26.1914 14.9073 26.1268C14.8209 26.0945 14.7521 26.0683 14.705 26.0502C14.6815 26.0411 14.6635 26.0341 14.6515 26.0294C14.6455 26.0271 14.6409 26.0253 14.638 26.0242C14.6366 26.0236 14.6355 26.0232 14.6348 26.0229C14.6345 26.0228 14.6342 26.0227 14.6341 26.0226C14.634 26.0226 14.634 26.0226 14.634 26.0226C14.634 26.0226 14.634 26.0226 14.634 26.0226C14.634 26.0226 14.634 26.0226 14.4488 26.4888C14.2636 26.9551 14.2636 26.9551 14.2637 26.9551C14.2637 26.9551 14.2638 26.9551 14.2638 26.9552C14.2639 26.9552 14.264 26.9552 14.2641 26.9553C14.2644 26.9554 14.2648 26.9556 14.2653 26.9557C14.2662 26.9561 14.2676 26.9567 14.2694 26.9574C14.2729 26.9587 14.278 26.9607 14.2846 26.9633C14.2979 26.9685 14.3172 26.976 14.3421 26.9856C14.3919 27.0047 14.4637 27.0321 14.5534 27.0657C14.7326 27.1326 14.9834 27.2242 15.2704 27.3227C15.8382 27.5174 16.5713 27.7476 17.1742 27.8624L17.3665 26.8783ZM14.6 26.0106L13.6595 25.7168L13.3571 26.6732L14.2976 26.9671L14.6 26.0106ZM13.8349 25.8142L11.8638 24.1161L11.2105 24.8777L13.1817 26.5758L13.8349 25.8142ZM11.5372 24.4969C11.435 24.9878 11.435 24.9878 11.4351 24.9878C11.4351 24.9878 11.4352 24.9878 11.4352 24.9878C11.4353 24.9878 11.4355 24.9879 11.4357 24.9879C11.4361 24.988 11.4366 24.9881 11.4373 24.9882C11.4388 24.9885 11.4409 24.989 11.4437 24.9895C11.4493 24.9907 11.4575 24.9923 11.4682 24.9945C11.4897 24.9988 11.5212 25.0051 11.562 25.0131C11.6434 25.0293 11.7614 25.0524 11.9087 25.0807C12.2032 25.1371 12.6149 25.2141 13.0843 25.2959C14.0191 25.459 15.1973 25.6444 16.134 25.7248L16.2254 24.7268C15.334 24.6503 14.191 24.4713 13.2615 24.3091C12.7988 24.2284 12.3926 24.1525 12.1023 24.0968C11.9571 24.069 11.841 24.0462 11.7614 24.0305C11.7216 24.0226 11.6909 24.0164 11.6702 24.0123C11.6599 24.0102 11.6521 24.0086 11.6469 24.0076C11.6443 24.0071 11.6423 24.0067 11.6411 24.0064C11.6404 24.0063 11.64 24.0062 11.6397 24.0061C11.6395 24.0061 11.6394 24.0061 11.6394 24.0061C11.6393 24.0061 11.6393 24.0061 11.6393 24.0061C11.6393 24.0061 11.6393 24.0061 11.5372 24.4969ZM16.134 25.7248C17.0878 25.8066 17.8474 25.743 18.5525 25.7032C19.2573 25.6634 19.9273 25.6452 20.772 25.7927L20.9494 24.8059C19.9923 24.6388 19.2326 24.662 18.5028 24.7032C17.7734 24.7444 17.0934 24.8013 16.2254 24.7268L16.134 25.7248ZM28.5239 28.3302C27.7018 27.905 27.1691 27.7272 26.2584 27.5743L26.0875 28.5622C26.8962 28.698 27.3308 28.8429 28.0618 29.2211L28.5239 28.3302ZM26.3332 27.593L24.2133 26.8856L23.8927 27.8362L26.0126 28.5436L26.3332 27.593ZM23.657 26.4439C24.1259 26.6372 24.4219 26.8988 24.7209 27.2298C25.0088 27.5485 25.3606 28.0128 25.8386 28.4423L26.5073 27.6943C26.0778 27.3084 25.8291 26.9602 25.4626 26.5545C25.1072 26.1611 24.6952 25.7865 24.0416 25.5171L23.657 26.4439ZM20.772 25.7927C21.3482 25.8933 21.6169 25.9859 22.2414 26.1283L22.4686 25.1515C21.926 25.0278 21.5521 24.9112 20.9494 24.8059L20.772 25.7927ZM22.3236 26.1399C22.8652 26.1707 23.1538 26.2364 23.657 26.4439L24.0416 25.5171C23.4365 25.2676 23.0391 25.177 22.3865 25.1399L22.3236 26.1399ZM22.6169 25.2118L20.2055 23.737L19.6818 24.5931L22.0932 26.068L22.6169 25.2118ZM20.0806 23.6826L16.2349 22.6074L15.9612 23.5723L19.8068 24.6475L20.0806 23.6826ZM16.1451 22.591L12.3595 22.2561L12.2655 23.2538L16.051 23.5887L16.1451 22.591ZM20.2249 24.828L22.2129 24.4751L22.0451 23.4888L20.0571 23.8418L20.2249 24.828ZM22.3905 23.5537L20.333 22.2976L19.81 23.1541L21.8675 24.4102L22.3905 23.5537ZM20.2609 22.2613L15.3604 20.2773L14.9816 21.2065L19.8821 23.1905L20.2609 22.2613ZM15.2974 20.2566L13.3072 19.7471L13.0545 20.7177L15.0446 21.2272L15.2974 20.2566ZM13.2546 19.7366L8.94017 19.1183L8.79272 20.1098L13.1071 20.7282L13.2546 19.7366ZM9.0424 19.1442L7.98873 18.7529L7.63681 19.6925L8.69049 20.0838L9.0424 19.1442ZM7.78358 18.723L7.59783 18.7351L7.65621 19.7346L7.84196 19.7225L7.78358 18.723ZM7.23091 18.8387L11.9975 18.3885L11.9102 17.3913L7.14369 17.8415L7.23091 18.8387ZM11.7565 18.3512L15.5166 19.9501L15.9113 19.0275L12.1512 17.4286L11.7565 18.3512ZM15.3319 19.1689L14.9781 19.5931L15.7421 20.2329L16.0959 19.8087L15.3319 19.1689ZM15.1604 19.4553L14.0439 19.9516L14.4434 20.8669L15.5599 20.3707L15.1604 19.4553ZM4.84745 18.0255L4.51984 19.6368L5.49804 19.8309L5.82565 18.2196L4.84745 18.0255ZM4.5937 19.4585L3.9404 20.4449L4.77087 20.9955L5.42418 20.0091L4.5937 19.4585ZM4.56602 20.2647L3.70905 19.8707L3.28827 20.7817L4.14524 21.1757L4.56602 20.2647ZM5.27034 18.7421L4.80839 21.1913L5.78934 21.3714L6.25128 18.9222L5.27034 18.7421ZM4.83237 21.1061L4.30621 22.4951L5.2392 22.8457L5.76536 21.4566L4.83237 21.1061ZM4.35871 22.3932L3.71915 23.3496L4.54714 23.9039L5.1867 22.9475L4.35871 22.3932Z" fill="white"/>
</svg>
