<svg width="733" height="470" viewBox="0 0 733 470" fill="none" xmlns="http://www.w3.org/2000/svg">
<path d="M596.538 326C596.538 420.16 510.863 401 333.538 401C156.212 401 0.537665 406.16 0.537665 312C0.537665 217.84 -17.7881 52 159.538 52C336.863 52 596.538 231.84 596.538 326Z" fill="#F0F0F0"/>
<path d="M71.5376 412H603.538L627.538 464H22.5376L71.5376 412Z" fill="#E3DFDF"/>
<rect x="145.538" y="371" width="21" height="31" fill="#474747"/>
<rect x="458.538" y="371" width="21" height="31" fill="#474747"/>
<rect x="134.538" y="298" width="348" height="81" rx="18" fill="#15D1D9"/>
<rect x="145.538" y="153" width="336" height="161" rx="18" fill="#15D1D9"/>
<rect x="145.538" y="278" width="336" height="36" rx="18" fill="#29EBF3"/>
<rect x="124.538" y="364" width="398" height="15" rx="7.5" fill="#29EBF3"/>
<rect x="145.538" y="211" width="168" height="67" rx="18" transform="rotate(90 145.538 211)" fill="#02B4BE"/>
<path d="M78.5581 233.9C78.778 232.801 80.346 232.791 80.5796 233.887L103.135 339.722C104.6 346.596 109.931 351.988 116.788 353.531L135.402 357.719C140.789 358.931 143.901 364.584 142.044 369.784V369.784C141.093 372.446 138.972 374.522 136.291 375.416L128.309 378.076C126.474 378.688 124.552 379 122.617 379L96.5381 379C86.597 379 78.5381 370.941 78.5381 361L78.5381 234.102C78.5381 234.034 78.5448 233.966 78.5581 233.9V233.9Z" fill="#99E4E8"/>
<rect x="546.538" y="211" width="168" height="67" rx="18" transform="rotate(90 546.538 211)" fill="#02B4BE"/>
<path d="M546.518 234.9C546.298 233.801 544.73 233.791 544.497 234.887L521.942 340.722C520.477 347.596 515.145 352.988 508.288 354.531L489.674 358.719C484.287 359.931 481.175 365.584 483.032 370.784V370.784C483.983 373.446 486.104 375.522 488.785 376.416L496.767 379.076C498.602 379.688 500.524 380 502.459 380L528.538 380C538.479 380 546.538 371.941 546.538 362L546.538 235.102C546.538 235.034 546.531 234.966 546.518 234.9V234.9Z" fill="#99E4E8"/>
<line x1="308.038" y1="278" x2="308.038" y2="153" stroke="#02B4BE"/>
<line x1="207.934" y1="186.354" x2="195.913" y2="198.375" stroke="#02B4BE"/>
<line x1="207.287" y1="198.293" x2="195.266" y2="186.272" stroke="#02B4BE"/>
<line x1="261.004" y1="186.383" x2="248.984" y2="198.404" stroke="#02B4BE"/>
<line x1="260.326" y1="198.295" x2="248.305" y2="186.275" stroke="#02B4BE"/>
<line x1="314.074" y1="186.411" x2="302.053" y2="198.432" stroke="#02B4BE"/>
<line x1="313.365" y1="198.298" x2="301.344" y2="186.278" stroke="#02B4BE"/>
<line x1="366.895" y1="186.19" x2="354.874" y2="198.211" stroke="#02B4BE"/>
<line x1="367.153" y1="197.551" x2="355.132" y2="185.53" stroke="#02B4BE"/>
<line x1="207.934" y1="249.354" x2="195.913" y2="261.375" stroke="#02B4BE"/>
<line x1="207.287" y1="261.293" x2="195.266" y2="249.272" stroke="#02B4BE"/>
<line x1="261.004" y1="249.383" x2="248.984" y2="261.404" stroke="#02B4BE"/>
<line x1="260.326" y1="261.295" x2="248.305" y2="249.275" stroke="#02B4BE"/>
<line x1="314.074" y1="249.411" x2="302.053" y2="261.432" stroke="#02B4BE"/>
<line x1="313.365" y1="261.298" x2="301.344" y2="249.278" stroke="#02B4BE"/>
<line x1="366.895" y1="249.19" x2="354.874" y2="261.211" stroke="#02B4BE"/>
<line x1="367.153" y1="260.551" x2="355.132" y2="248.53" stroke="#02B4BE"/>
<line y1="-0.5" x2="22" y2="-0.5" transform="matrix(-0.707262 0.706952 -0.707262 -0.706952 247.538 218)" stroke="#02B4BE"/>
<line y1="-0.5" x2="22" y2="-0.5" transform="matrix(-0.707262 -0.706952 0.707262 -0.706952 248.538 234)" stroke="#02B4BE"/>
<line y1="-0.5" x2="22" y2="-0.5" transform="matrix(-0.707262 0.706952 -0.707262 -0.706952 384.538 219)" stroke="#02B4BE"/>
<line y1="-0.5" x2="22" y2="-0.5" transform="matrix(-0.707262 -0.706952 0.707262 -0.706952 385.538 235)" stroke="#02B4BE"/>
<path d="M290.538 415C294.742 404.419 246.039 415.256 247.538 408C241.538 420.093 203.137 405.628 205.538 415C205.538 419.007 224.168 421 247.538 421C261.043 421 290.538 419.007 290.538 415Z" fill="#040404"/>
<ellipse cx="248.038" cy="413" rx="42.5" ry="5" fill="#2F3E53"/>
<rect x="243.538" y="271" width="9" height="140" rx="2" fill="#1A2536"/>
<path d="M338.538 272C347.588 249.209 244.311 271.628 247.538 256C234.62 282.047 151.369 251.814 156.538 272C156.538 280.631 197.223 284 247.538 284C276.614 284 338.538 280.631 338.538 272Z" fill="#040404"/>
<ellipse cx="247.538" cy="267" rx="91" ry="11" fill="#2F3E53"/>
<path d="M91.7087 404.241C91.3633 404.215 91.0168 404.278 90.703 404.425L57.3837 420.042C56.0698 420.658 55.8252 422.419 56.9224 423.364L88.3639 450.44C90.2197 452.039 92.7787 449.539 91.218 447.653L75.4899 428.64C74.5067 427.452 75.1886 425.644 76.7144 425.395L113.896 419.31C114.044 419.286 114.188 419.245 114.327 419.189L133.81 411.274C135.768 410.479 135.322 407.594 133.216 407.432L91.7087 404.241Z" fill="#FF7B00"/>
<path d="M150.388 290.529C149.791 288.709 147.223 288.688 146.597 290.498L137.03 318.155C136.582 319.448 137.536 320.798 138.903 320.809L157.583 320.961C158.951 320.972 159.926 319.638 159.5 318.338L150.388 290.529Z" fill="#FF7B00"/>
<path d="M110.87 301.509C109.394 300.449 107.381 301.737 107.735 303.515L112.622 328.046C112.898 329.428 114.482 330.101 115.671 329.341L131.146 319.439C132.334 318.679 132.379 316.963 131.232 316.139L110.87 301.509Z" fill="#FF7B00"/>
<path d="M92.5377 412C102.391 440.534 122.41 432 145.538 432C168.665 432 183.252 413.293 184.538 393C184.723 390.082 165.665 335 142.538 335C119.41 335 82.6844 383.466 92.5377 412Z" fill="#FF9B58"/>
<path d="M96.5377 333C96.5377 350.887 114.004 365 135.538 365C157.071 365 185.685 343.024 178.538 321C163.592 295.738 173.881 326.137 148.538 308C99.8006 309.943 125.13 341.421 96.5377 333Z" fill="#FF9B58"/>
<ellipse cx="2" cy="2.5" rx="2" ry="2.5" transform="matrix(-0.948044 0.318139 0.320299 0.947316 132.538 325)" fill="black"/>
<ellipse cx="2" cy="2.5" rx="2" ry="2.5" transform="matrix(-1 0 0 1 149.538 322)" fill="black"/>
<path d="M146.538 340C146.538 342.209 144.237 345 142.538 345C140.839 345 139.153 342.999 138.538 341C141 339.666 139.839 337 141.538 337C143.237 337 144.692 339.333 146.538 340Z" fill="#FF8989"/>
<path d="M142.242 336.128C142.242 336.128 145.736 340.655 149.032 340.8C153.704 341.006 158.528 332.605 158.528 332.605" stroke="black" stroke-width="0.5" stroke-linecap="round"/>
<path d="M125.242 339.128C125.242 339.128 128.736 343.655 132.032 343.8C136.704 344.006 141.528 335.605 141.528 335.605" stroke="black" stroke-width="0.5" stroke-linecap="round"/>
<path d="M136.738 335.036C136.9 336.252 138.909 337.776 141.099 337.488C143.289 337.199 144.831 335.207 144.669 333.991C144.508 332.775 142.762 333.234 140.572 333.522C138.382 333.811 136.577 333.821 136.738 335.036Z" fill="#FF0080"/>
<line y1="-0.5" x2="31" y2="-0.5" transform="matrix(0.957578 -0.288173 -0.294175 -0.955752 167.538 329)" stroke="black"/>
<line y1="-0.5" x2="22" y2="-0.5" transform="matrix(0.999748 -0.0224531 -0.0229643 -0.999736 170.538 333)" stroke="black"/>
<line y1="-0.5" x2="31" y2="-0.5" transform="matrix(0.929804 0.368055 0.37527 -0.926916 168.538 335)" stroke="black"/>
<line y1="-0.5" x2="31" y2="-0.5" transform="matrix(-0.999923 -0.012403 0.0170183 -0.999855 117.538 336)" stroke="black"/>
<line y1="-0.5" x2="22" y2="-0.5" transform="matrix(-0.967083 0.254461 -0.255904 -0.966702 115.538 341)" stroke="black"/>
<line y1="-0.5" x2="31" y2="-0.5" transform="matrix(-0.791873 0.610686 -0.617972 -0.7862 118.538 343)" stroke="black"/>
<rect width="58" height="8" rx="4" transform="matrix(-0.998595 0.0529898 0.0533895 0.998574 167.538 351)" fill="#FF0004"/>
<ellipse cx="8" cy="7.5" rx="8" ry="7.5" transform="matrix(-1 0 0 1 148.538 356)" fill="#FFFB00"/>
<rect width="4" height="6" transform="matrix(-0.999524 0.0308574 0.0310906 0.999517 141.538 351)" fill="black"/>
<ellipse cx="11.5" cy="7" rx="11.5" ry="7" transform="matrix(-0.988439 0.151618 0.152739 0.988267 173.538 417)" fill="#FF7B00"/>
<ellipse cx="11.5" cy="7" rx="11.5" ry="7" transform="matrix(-0.99341 -0.114611 -0.115467 0.993311 136.538 421)" fill="#FF7B00"/>
<path d="M320.538 245C320.538 247.064 319.33 249.04 317.161 250.542C314.996 252.041 311.95 253 308.538 253C305.126 253 302.08 252.041 299.915 250.542C297.746 249.04 296.538 247.064 296.538 245C296.538 242.936 297.746 240.96 299.915 239.458C302.08 237.959 305.126 237 308.538 237C311.95 237 314.996 237.959 317.161 239.458C319.33 240.96 320.538 242.936 320.538 245Z" stroke="#DDDDDD" stroke-width="2"/>
<path d="M322.994 259.572L337.402 264.715L352.322 292.32" stroke="#5500FF" stroke-width="5"/>
<rect width="24" height="32" rx="1" transform="matrix(0.0458717 0.998947 -0.998949 0.0458316 325.538 242)" fill="#DDDDDD"/>
<path d="M383.538 290C391.351 299.946 382.404 301 370.538 301C358.672 301 344.538 300.028 344.538 296C344.538 291.971 349.772 280.38 359.538 289C371.404 289 367.261 290 383.538 290Z" fill="#5500FF"/>
<rect width="32" height="25" transform="matrix(-0.998342 0.0575579 0.0505091 0.998724 565.538 133)" fill="#DA8759"/>
<path d="M559.219 113.001C558.373 119.574 562.118 125.552 567.582 126.354C573.047 127.155 578.162 122.475 579.007 115.902C579.852 109.329 576.108 103.351 570.643 102.55C565.179 101.748 560.064 106.428 559.219 113.001Z" fill="#F79F6F"/>
<ellipse cx="7" cy="12" rx="7" ry="12" transform="matrix(-0.988483 0.151332 0.133101 0.991103 531.538 102)" fill="#F79F6F"/>
<path d="M522.326 152.438C518.869 147.123 511.954 145.846 506.831 149.576L431.288 204.592C425.924 208.498 424.502 216.22 428.122 221.785V221.785C431.72 227.317 438.934 228.616 444.235 224.685L519.345 168.998C524.469 165.199 525.803 157.785 522.326 152.438V152.438Z" fill="#FFC86E"/>
<path d="M614.538 238L536.538 232L521.538 237L544.538 442L565.538 444L572.538 303L588.538 444L609.538 442L614.538 238Z" fill="#78AAD9"/>
<path d="M599.538 148C599.538 148 525.737 146.047 510.538 148C495.338 149.953 520.538 237 520.538 237L614.538 238L599.538 148Z" fill="#FFC86F"/>
<path d="M524.833 118.937C527.946 138.225 534.123 141.004 547.175 146.996C564.253 142.48 570.45 132.841 573.982 109.83C573.997 89.3226 572.616 83.5729 557.604 86.6662C544.086 79.7911 521.761 68.6024 524.833 118.937Z" fill="#FFA878"/>
<path d="M577.366 83.4853C576.847 81.9288 575.598 80.7259 574.023 80.2665L553.715 74.3435C552.942 74.1178 552.125 74.0825 551.335 74.2406L529.706 78.5662C528.325 78.8425 527.124 79.6887 526.4 80.8966L522.235 87.8376C520.443 90.8244 522.178 94.6825 525.601 95.3244L549.76 99.8543C550.275 99.9508 550.802 99.9659 551.322 99.8988L575.513 96.7773C578.634 96.3746 580.612 93.223 579.617 90.2373L577.366 83.4853Z" fill="#E3DFDF"/>
<rect width="64" height="7" rx="3.5" transform="matrix(-1 0 0 1 580.538 94)" fill="#78AAD9"/>
<path d="M538.538 178L575.538 177L605.538 238H525.538L538.538 178Z" fill="#78AAD9"/>
<path d="M583.538 147H571.538V240H583.538V147Z" fill="#78AAD9"/>
<path d="M532.846 146.976L521.708 146.927L536.207 239.802L547.037 237.875L532.846 146.976Z" fill="#78AAD9"/>
<path d="M606.134 152.756C601.444 145.544 591.335 145.551 586.362 152.769L563.402 186.094C561.05 189.509 557.784 192.105 554.042 193.534L517.807 207.376C511.227 209.89 508.743 218.422 512.902 224.222V224.222C515.516 227.868 520.065 229.302 524.223 227.792L567.76 211.976C571.269 210.701 574.384 208.403 576.741 205.349L605.422 168.194C608.878 163.717 609.169 157.421 606.134 152.756V152.756Z" fill="#FFBE53"/>
<rect width="56" height="23" transform="matrix(-0.941386 0.337331 0.295895 0.955221 498.538 203)" fill="#222222"/>
<path d="M509.318 196.272C493.653 179.592 455.659 215.5 455.659 215.5L464.831 245.112L518.49 225.884C518.49 225.884 517.279 204.749 509.318 196.272Z" fill="#9D9D9D"/>
<path d="M492.538 224L509.014 244.329L521.422 240.48L512.987 215.887L492.538 224Z" fill="#9D9D9D"/>
<ellipse cx="18" cy="11.5" rx="18" ry="11.5" transform="matrix(-0.879471 0.475953 0.428854 0.903374 525.538 201)" fill="#F6DDBB"/>
<ellipse cx="17.5" cy="12.5" rx="17.5" ry="12.5" transform="matrix(-0.907299 0.420487 0.376605 0.926374 444.538 198)" fill="#F6DDBB"/>
<ellipse cx="2" cy="3.5" rx="2" ry="3.5" transform="matrix(-1 0 0 1 541.538 106)" fill="black"/>
<ellipse cx="2" cy="3.5" rx="2" ry="3.5" transform="matrix(-1 0 0 1 560.538 106)" fill="black"/>
<path d="M539.538 127C539.538 128.106 543.224 132 547.538 132C551.851 132 556.538 129.106 556.538 128C556.538 126.893 551.851 127 547.538 127C543.224 127 539.538 125.893 539.538 127Z" fill="white"/>
<path d="M539.538 128C539.538 129.144 544.246 137 548.538 137C552.83 137 555.538 130.144 555.538 129C555.538 127.855 551.83 131 547.538 131C543.246 131 539.538 126.855 539.538 128Z" fill="#FF0000"/>
<path d="M556.538 128C556.538 128 552.301 137.487 548.196 137.676C543.76 137.882 538.552 127.286 538.552 127.286" stroke="black"/>
<path d="M556.538 128L538.563 127.04" stroke="black" stroke-linecap="round"/>
<line y1="-0.5" x2="10" y2="-0.5" transform="matrix(-1 -0.000783114 -0.000686948 1 542.538 103)" stroke="black"/>
<line y1="-0.5" x2="10" y2="-0.5" transform="matrix(-0.999994 -0.00345788 -0.00303325 0.999995 563.538 103)" stroke="black"/>
<line y1="-0.5" x2="15.0033" y2="-0.5" transform="matrix(0.673808 0.7198 0.727287 -0.706347 478.684 225.895)" stroke="#222222"/>
<line y1="-0.5" x2="15.0033" y2="-0.5" transform="matrix(0.673808 0.7198 0.727287 -0.706347 471.857 227.891)" stroke="#222222"/>
<line y1="-0.5" x2="15.0033" y2="-0.5" transform="matrix(0.673808 0.7198 0.727287 -0.706347 465.03 229.887)" stroke="#222222"/>
<circle cx="1.5" cy="1.5" r="1.5" transform="matrix(-1 0 0 1 501.538 206)" fill="#FFC86E"/>
<circle cx="2" cy="2" r="2" transform="matrix(-1 0 0 1 506.538 204)" fill="#7D7D7D"/>
<path d="M586.538 450C586.538 457.179 606.867 456 623.538 456C640.209 456 639.538 450.179 639.538 443C595.884 438.185 618.209 437 601.538 437C584.867 437 586.538 442.821 586.538 450Z" fill="#FFF4E5"/>
<path d="M567.538 451C567.538 458.179 547.209 457 530.538 457C513.867 457 514.538 451.179 514.538 444C558.192 439.185 535.867 438 552.538 438C569.209 438 567.538 443.821 567.538 451Z" fill="#FFF4E5"/>
<line y1="-0.5" x2="9" y2="-0.5" transform="matrix(-0.402876 0.915255 0.893783 0.4485 548.538 112)" stroke="#DA8759"/>
<line y1="-0.5" x2="5" y2="-0.5" transform="matrix(-0.962687 -0.270617 -0.239415 0.970917 548.538 121)" stroke="#DA8759"/>
<path d="M133.643 337.739L65.0489 326.781L72.9595 313.422L133.643 337.739Z" fill="white"/>
<path d="M87.0376 309C87.0376 314.796 82.5432 320.164 75.0041 324.113C67.4886 328.05 57.0715 330.5 45.5376 330.5C34.0037 330.5 23.5866 328.05 16.0711 324.113C8.53197 320.164 4.0376 314.796 4.0376 309C4.0376 303.204 8.53197 297.836 16.0711 293.887C23.5866 289.95 34.0037 287.5 45.5376 287.5C57.0715 287.5 67.4886 289.95 75.0041 293.887C82.5432 297.836 87.0376 303.204 87.0376 309Z" fill="white" stroke="white"/>
<path d="M35.9526 313.8C35.9526 313.933 35.8926 314 35.7726 314H33.8126C33.7059 314 33.6393 313.94 33.6126 313.82L33.0526 306.42L31.3326 313.86C31.3059 313.953 31.2459 314 31.1526 314H29.1126C29.0193 314 28.9593 313.953 28.9326 313.86L27.2126 306.42L26.6526 313.82C26.6259 313.94 26.5593 314 26.4526 314H24.5126C24.3793 314 24.3126 313.933 24.3126 313.8L25.4526 300.18C25.4526 300.06 25.5126 300 25.6326 300H27.6526C27.7459 300 27.8059 300.047 27.8326 300.14L30.1326 309.92L32.4326 300.14C32.4593 300.047 32.5193 300 32.6126 300H34.6326C34.7526 300 34.8126 300.06 34.8126 300.18L35.9526 313.8ZM43.774 300C43.894 300 43.954 300.06 43.954 300.18V313.82C43.954 313.94 43.894 314 43.774 314H41.814C41.6807 314 41.614 313.94 41.614 313.82V308.16H41.034L39.334 313.86C39.3073 313.953 39.2473 314 39.154 314H37.214C37.1473 314 37.094 313.98 37.054 313.94C37.014 313.887 37.0073 313.827 37.034 313.76L38.734 308.1C38.4807 308.033 38.274 307.947 38.114 307.84C37.7673 307.64 37.4873 307.36 37.274 307C37.0607 306.627 36.954 306.24 36.954 305.84V302.34C36.954 302.02 37.014 301.72 37.134 301.44C37.254 301.147 37.4207 300.893 37.634 300.68C37.8473 300.467 38.094 300.3 38.374 300.18C38.6673 300.06 38.974 300 39.294 300H43.774ZM41.614 305.84V302.34H39.474C39.354 302.34 39.294 302.4 39.294 302.52V305.64C39.294 305.773 39.354 305.84 39.474 305.84H41.614ZM52.3482 300C52.4682 300 52.5282 300.06 52.5282 300.18V313.82C52.5282 313.94 52.4682 314 52.3482 314H50.3882C50.2549 314 50.1882 313.94 50.1882 313.82V308.16H49.6082L47.9082 313.86C47.8816 313.953 47.8216 314 47.7282 314H45.7882C45.7216 314 45.6682 313.98 45.6282 313.94C45.5882 313.887 45.5816 313.827 45.6082 313.76L47.3082 308.1C47.0549 308.033 46.8482 307.947 46.6882 307.84C46.3416 307.64 46.0616 307.36 45.8482 307C45.6349 306.627 45.5282 306.24 45.5282 305.84V302.34C45.5282 302.02 45.5882 301.72 45.7082 301.44C45.8282 301.147 45.9949 300.893 46.2082 300.68C46.4216 300.467 46.6682 300.3 46.9482 300.18C47.2416 300.06 47.5482 300 47.8682 300H52.3482ZM50.1882 305.84V302.34H48.0482C47.9282 302.34 47.8682 302.4 47.8682 302.52V305.64C47.8682 305.773 47.9282 305.84 48.0482 305.84H50.1882ZM60.9224 300C61.0424 300 61.1024 300.06 61.1024 300.18V313.82C61.1024 313.94 61.0424 314 60.9224 314H58.9624C58.8291 314 58.7624 313.94 58.7624 313.82V308.16H58.1824L56.4824 313.86C56.4558 313.953 56.3958 314 56.3024 314H54.3624C54.2958 314 54.2424 313.98 54.2024 313.94C54.1624 313.887 54.1558 313.827 54.1824 313.76L55.8824 308.1C55.6291 308.033 55.4224 307.947 55.2624 307.84C54.9158 307.64 54.6358 307.36 54.4224 307C54.2091 306.627 54.1024 306.24 54.1024 305.84V302.34C54.1024 302.02 54.1624 301.72 54.2824 301.44C54.4024 301.147 54.5691 300.893 54.7824 300.68C54.9958 300.467 55.2424 300.3 55.5224 300.18C55.8158 300.06 56.1224 300 56.4424 300H60.9224ZM58.7624 305.84V302.34H56.6224C56.5024 302.34 56.4424 302.4 56.4424 302.52V305.64C56.4424 305.773 56.5024 305.84 56.6224 305.84H58.7624ZM69.1437 300.22L66.8637 313.84C66.837 313.947 66.777 314 66.6837 314H63.8837C63.7904 314 63.7304 313.947 63.7037 313.84L63.3837 311.88C63.357 311.733 63.417 311.66 63.5637 311.66H64.9037L65.2837 309.34H63.8837C63.7904 309.34 63.7304 309.287 63.7037 309.18L62.2037 300.22C62.1904 300.153 62.2037 300.1 62.2437 300.06C62.2837 300.02 62.3304 300 62.3837 300H64.3437C64.4637 300 64.5237 300.053 64.5237 300.16L65.6637 307L66.8037 300.16C66.8304 300.053 66.897 300 67.0037 300H68.9437C69.0104 300 69.0637 300.02 69.1037 300.06C69.1437 300.1 69.157 300.153 69.1437 300.22Z" fill="#15D1D9"/>
<path d="M137.538 341C137.538 341 139.83 344.555 141.955 344.534C144.319 344.51 145.489 340.117 145.489 340.117" stroke="black" stroke-width="0.5"/>
<path d="M675.538 95L680.952 149.125L703.306 154.648L680.894 162.575L670.188 213.657L666.025 162.436L641.673 154.674L666.084 148.985L675.538 95Z" fill="#6BF0F6"/>
<path d="M661.538 272L660.507 294.995L669.502 300.007L660.594 300.824L651.883 337.993L653.708 299.21L644.713 294.198L654.998 293.704L661.538 272Z" fill="#6BF0F6"/>
<path d="M607.538 0L614.715 29.9516L627.62 31.8336L615.236 37.002L616.924 88.6259L607.53 38.2803L593.868 35.7455L606.251 30.5771L607.538 0Z" fill="#6BF0F6"/>
</svg>
