<svg width="733" height="593" viewBox="0 0 733 593" fill="none" xmlns="http://www.w3.org/2000/svg">
<path d="M597 331C597 425.16 511.326 406 334 406C156.674 406 1.00007 411.16 1.00007 317C1.00007 222.84 -17.3257 57 160 57C337.326 57 597 236.84 597 331Z" fill="#F0F0F0"/>
<path d="M72 417H604L628 469H23L72 417Z" fill="#E3DFDF"/>
<rect x="146" y="376" width="21" height="31" fill="#474747"/>
<rect x="459" y="376" width="21" height="31" fill="#474747"/>
<rect x="135" y="303" width="348" height="81" rx="18" fill="#15D1D9"/>
<rect x="146" y="158" width="336" height="161" rx="18" fill="#15D1D9"/>
<rect x="146" y="283" width="336" height="36" rx="18" fill="#29EBF3"/>
<rect x="125" y="369" width="398" height="15" rx="7.5" fill="#29EBF3"/>
<rect x="146" y="216" width="168" height="67" rx="18" transform="rotate(90 146 216)" fill="#02B4BE"/>
<path d="M79.0205 238.9C79.2404 237.801 80.8084 237.791 81.042 238.887L103.597 344.722C105.062 351.596 110.394 356.988 117.25 358.531L135.864 362.719C141.251 363.931 144.363 369.584 142.506 374.784C141.556 377.445 139.435 379.522 136.754 380.416L128.772 383.076C126.936 383.688 125.014 384 123.079 384L97.0005 384C87.0594 384 79.0005 375.941 79.0005 366L79.0005 239.102C79.0005 239.034 79.0072 238.966 79.0205 238.9Z" fill="#99E4E8"/>
<rect x="547" y="216" width="168" height="67" rx="18" transform="rotate(90 547 216)" fill="#02B4BE"/>
<path d="M546.98 239.9C546.761 238.801 545.193 238.791 544.959 239.887L522.404 345.722C520.939 352.596 515.607 357.988 508.751 359.531L490.137 363.719C484.75 364.931 481.638 370.584 483.495 375.784C484.445 378.445 486.566 380.522 489.247 381.416L497.229 384.076C499.065 384.688 500.987 385 502.921 385L529 385C538.942 385 547 376.941 547 367L547 240.102C547 240.034 546.994 239.966 546.98 239.9Z" fill="#99E4E8"/>
<line x1="308.5" y1="283" x2="308.5" y2="158" stroke="#02B4BE"/>
<line x1="208.397" y1="191.354" x2="196.376" y2="203.375" stroke="#02B4BE"/>
<line x1="207.749" y1="203.293" x2="195.728" y2="191.272" stroke="#02B4BE"/>
<line x1="261.467" y1="191.383" x2="249.446" y2="203.404" stroke="#02B4BE"/>
<line x1="260.788" y1="203.295" x2="248.767" y2="191.275" stroke="#02B4BE"/>
<line x1="314.537" y1="191.411" x2="302.516" y2="203.432" stroke="#02B4BE"/>
<line x1="313.827" y1="203.298" x2="301.806" y2="191.278" stroke="#02B4BE"/>
<line x1="367.357" y1="191.19" x2="355.336" y2="203.211" stroke="#02B4BE"/>
<line x1="367.616" y1="202.551" x2="355.595" y2="190.53" stroke="#02B4BE"/>
<line x1="208.397" y1="254.354" x2="196.376" y2="266.375" stroke="#02B4BE"/>
<line x1="207.749" y1="266.293" x2="195.728" y2="254.272" stroke="#02B4BE"/>
<line x1="261.467" y1="254.383" x2="249.446" y2="266.404" stroke="#02B4BE"/>
<line x1="260.788" y1="266.295" x2="248.767" y2="254.275" stroke="#02B4BE"/>
<line x1="314.537" y1="254.411" x2="302.516" y2="266.432" stroke="#02B4BE"/>
<line x1="313.827" y1="266.298" x2="301.806" y2="254.278" stroke="#02B4BE"/>
<line x1="367.357" y1="254.19" x2="355.336" y2="266.211" stroke="#02B4BE"/>
<line x1="367.616" y1="265.551" x2="355.595" y2="253.53" stroke="#02B4BE"/>
<line y1="-0.5" x2="22" y2="-0.5" transform="matrix(-0.707262 0.706952 -0.707262 -0.706952 248 223)" stroke="#02B4BE"/>
<line y1="-0.5" x2="22" y2="-0.5" transform="matrix(-0.707262 -0.706952 0.707262 -0.706952 249 239)" stroke="#02B4BE"/>
<line y1="-0.5" x2="22" y2="-0.5" transform="matrix(-0.707262 0.706952 -0.707262 -0.706952 385 224)" stroke="#02B4BE"/>
<line y1="-0.5" x2="22" y2="-0.5" transform="matrix(-0.707262 -0.706952 0.707262 -0.706952 386 240)" stroke="#02B4BE"/>
<path d="M291 420C295.204 409.419 246.502 420.256 248 413C242 425.093 203.599 410.628 206 420C206 424.007 224.63 426 248 426C261.506 426 291 424.007 291 420Z" fill="#040404"/>
<ellipse cx="248.5" cy="418" rx="42.5" ry="5" fill="#2F3E53"/>
<rect x="244" y="276" width="9" height="140" rx="2" fill="#1A2536"/>
<path d="M339 277C348.05 254.209 244.774 276.628 248 261C235.082 287.047 151.831 256.814 157 277C157 285.631 197.685 289 248 289C277.076 289 339 285.631 339 277Z" fill="#040404"/>
<ellipse cx="248" cy="272" rx="91" ry="11" fill="#2F3E53"/>
<path d="M92.1711 409.241C91.8257 409.215 91.4792 409.278 91.1654 409.425L57.8461 425.042C56.5322 425.658 56.2876 427.419 57.3848 428.364L88.8263 455.44C90.6821 457.038 93.2411 454.539 91.6805 452.653L75.9523 433.64C74.9691 432.452 75.651 430.644 77.1768 430.395L114.358 424.31C114.506 424.286 114.651 424.245 114.789 424.189L134.273 416.274C136.231 415.479 135.785 412.594 133.679 412.432L92.1711 409.241Z" fill="#FF7B00"/>
<path d="M150.85 295.529C150.254 293.709 147.686 293.688 147.059 295.498L137.492 323.155C137.045 324.448 137.998 325.798 139.366 325.809L158.046 325.961C159.414 325.972 160.389 324.638 159.963 323.338L150.85 295.529Z" fill="#FF7B00"/>
<path d="M111.332 306.509C109.857 305.449 107.844 306.737 108.198 308.515L113.085 333.046C113.36 334.428 114.945 335.101 116.133 334.341L131.608 324.439C132.796 323.679 132.841 321.963 131.694 321.139L111.332 306.509Z" fill="#FF7B00"/>
<path d="M93.0001 417C102.853 445.534 122.872 437 146 437C169.128 437 183.714 418.293 185 398C185.185 395.082 166.128 340 143 340C119.872 340 83.1468 388.466 93.0001 417Z" fill="#FF9B58"/>
<path d="M97.0001 338C97.0001 355.887 114.467 370 136 370C157.534 370 186.148 348.024 179 326C164.054 300.738 174.343 331.137 149 313C100.263 314.943 125.593 346.421 97.0001 338Z" fill="#FF9B58"/>
<ellipse cx="2" cy="2.5" rx="2" ry="2.5" transform="matrix(-0.948044 0.318139 0.320299 0.947316 133 330)" fill="black"/>
<ellipse cx="2" cy="2.5" rx="2" ry="2.5" transform="matrix(-1 0 0 1 150 327)" fill="black"/>
<path d="M147 345C147 347.209 144.7 350 143 350C141.301 350 139.616 347.999 139 346C141.462 344.666 140.301 342 142 342C143.7 342 145.154 344.333 147 345Z" fill="#FF8989"/>
<path d="M142.705 341.128C142.705 341.128 146.199 345.655 149.494 345.8C154.167 346.006 158.99 337.605 158.99 337.605" stroke="black" stroke-width="0.5" stroke-linecap="round"/>
<path d="M125.705 344.128C125.705 344.128 129.199 348.655 132.494 348.8C137.167 349.006 141.99 340.605 141.99 340.605" stroke="black" stroke-width="0.5" stroke-linecap="round"/>
<path d="M137.2 340.036C137.362 341.252 139.371 342.776 141.561 342.488C143.751 342.199 145.293 340.207 145.132 338.991C144.97 337.775 143.225 338.234 141.035 338.522C138.844 338.811 137.039 338.821 137.2 340.036Z" fill="#FF0080"/>
<line y1="-0.5" x2="31" y2="-0.5" transform="matrix(0.957578 -0.288173 -0.294175 -0.955752 168 334)" stroke="black"/>
<line y1="-0.5" x2="22" y2="-0.5" transform="matrix(0.999748 -0.0224531 -0.0229643 -0.999736 171 338)" stroke="black"/>
<line y1="-0.5" x2="31" y2="-0.5" transform="matrix(0.929804 0.368055 0.37527 -0.926916 169 340)" stroke="black"/>
<line y1="-0.5" x2="31" y2="-0.5" transform="matrix(-0.999923 -0.012403 0.0170183 -0.999855 118 341)" stroke="black"/>
<line y1="-0.5" x2="22" y2="-0.5" transform="matrix(-0.967083 0.254461 -0.255904 -0.966702 116 346)" stroke="black"/>
<line y1="-0.5" x2="31" y2="-0.5" transform="matrix(-0.791873 0.610686 -0.617972 -0.7862 119 348)" stroke="black"/>
<rect width="58" height="8" rx="4" transform="matrix(-0.998595 0.0529898 0.0533895 0.998574 168 356)" fill="#FF0004"/>
<ellipse cx="8" cy="7.5" rx="8" ry="7.5" transform="matrix(-1 0 0 1 149 361)" fill="#FFFB00"/>
<rect width="4" height="6" transform="matrix(-0.999524 0.0308574 0.0310906 0.999517 142 356)" fill="black"/>
<ellipse cx="11.5" cy="7" rx="11.5" ry="7" transform="matrix(-0.988439 0.151618 0.152739 0.988267 174 422)" fill="#FF7B00"/>
<ellipse cx="11.5" cy="7" rx="11.5" ry="7" transform="matrix(-0.99341 -0.114611 -0.115467 0.993311 137 426)" fill="#FF7B00"/>
<path d="M321 250C321 252.064 319.793 254.04 317.624 255.542C315.458 257.041 312.413 258 309 258C305.588 258 302.543 257.041 300.377 255.542C298.208 254.04 297 252.064 297 250C297 247.936 298.208 245.96 300.377 244.458C302.543 242.959 305.588 242 309 242C312.413 242 315.458 242.959 317.624 244.458C319.793 245.96 321 247.936 321 250Z" stroke="#DDDDDD" stroke-width="2"/>
<path d="M323.457 264.572L337.864 269.715L352.785 297.32" stroke="#5500FF" stroke-width="5"/>
<rect width="24" height="32" rx="1" transform="matrix(0.0458717 0.998947 -0.998949 0.0458316 326 247)" fill="#DDDDDD"/>
<path d="M384 295C391.814 304.946 382.867 306 371 306C359.134 306 345 305.028 345 301C345 296.971 350.234 285.38 360 294C371.867 294 367.723 295 384 295Z" fill="#5500FF"/>
<rect width="32" height="25" transform="matrix(-0.998342 0.0575579 0.0505091 0.998724 566 138)" fill="#DA8759"/>
<path d="M559.681 118.001C558.836 124.574 562.58 130.552 568.045 131.354C573.509 132.155 578.624 127.475 579.469 120.902C580.315 114.329 576.57 108.351 571.106 107.55C565.641 106.748 560.526 111.428 559.681 118.001Z" fill="#F79F6F"/>
<ellipse cx="7" cy="12" rx="7" ry="12" transform="matrix(-0.988483 0.151332 0.133101 0.991103 532 107)" fill="#F79F6F"/>
<path d="M522.788 157.438C519.332 152.123 512.416 150.846 507.294 154.576L431.751 209.592C426.387 213.498 424.965 221.22 428.584 226.785C432.182 232.317 439.396 233.616 444.697 229.685L519.807 173.998C524.931 170.199 526.266 162.785 522.788 157.438Z" fill="#FFC86E"/>
<path d="M615 243L537 237L522 242L545 447L566 449L573 308L589 449L610 447L615 243Z" fill="#78AAD9"/>
<path d="M600 153C600 153 526.199 151.047 511 153C495.801 154.953 521 242 521 242L615 243L600 153Z" fill="#FFC86F"/>
<path d="M525.296 123.937C528.408 143.225 534.585 146.004 547.638 151.996C564.716 147.48 570.912 137.841 574.445 114.83C574.46 94.3226 573.079 88.5729 558.067 91.6662C544.548 84.7911 522.223 73.6024 525.296 123.937Z" fill="#FFA878"/>
<path d="M577.828 88.4853C577.31 86.9288 576.06 85.7259 574.485 85.2665L554.178 79.3435C553.404 79.1178 552.587 79.0825 551.797 79.2406L530.169 83.5662C528.788 83.8425 527.587 84.6887 526.862 85.8966L522.697 92.8376C520.905 95.8244 522.64 99.6825 526.063 100.324L550.223 104.854C550.738 104.951 551.265 104.966 551.784 104.899L575.976 101.777C579.097 101.375 581.074 98.223 580.079 95.2373L577.828 88.4853Z" fill="#E3DFDF"/>
<rect width="64" height="7" rx="3.5" transform="matrix(-1 0 0 1 581 99)" fill="#78AAD9"/>
<path d="M539 183L576 182L606 243H526L539 183Z" fill="#78AAD9"/>
<path d="M584 152H572V245H584V152Z" fill="#78AAD9"/>
<path d="M533.308 151.976L522.17 151.927L536.67 244.802L547.499 242.875L533.308 151.976Z" fill="#78AAD9"/>
<path d="M606.597 157.756C601.907 150.544 591.797 150.551 586.824 157.769L563.865 191.094C561.512 194.509 558.247 197.105 554.505 198.534L518.269 212.376C511.69 214.89 509.205 223.422 513.364 229.222C515.979 232.868 520.527 234.302 524.685 232.792L568.222 216.976C571.731 215.701 574.846 213.403 577.204 210.349L605.885 173.194C609.341 168.717 609.631 162.421 606.597 157.756Z" fill="#FFBE53"/>
<rect width="56" height="23" transform="matrix(-0.941386 0.337331 0.295895 0.955221 499 208)" fill="#222222"/>
<path d="M509.78 201.272C494.115 184.592 456.121 220.5 456.121 220.5L465.294 250.112L518.953 230.884C518.953 230.884 517.741 209.749 509.78 201.272Z" fill="#9D9D9D"/>
<path d="M493 229L509.476 249.329L521.884 245.48L513.449 220.887L493 229Z" fill="#9D9D9D"/>
<ellipse cx="18" cy="11.5" rx="18" ry="11.5" transform="matrix(-0.879471 0.475953 0.428854 0.903374 526 206)" fill="#F6DDBB"/>
<ellipse cx="17.5" cy="12.5" rx="17.5" ry="12.5" transform="matrix(-0.907299 0.420487 0.376605 0.926374 445 203)" fill="#F6DDBB"/>
<ellipse cx="2" cy="3.5" rx="2" ry="3.5" transform="matrix(-1 0 0 1 542 111)" fill="black"/>
<ellipse cx="2" cy="3.5" rx="2" ry="3.5" transform="matrix(-1 0 0 1 561 111)" fill="black"/>
<path d="M540 132C540 133.106 543.686 137 548 137C552.314 137 557 134.106 557 133C557 131.893 552.314 132 548 132C543.686 132 540 130.893 540 132Z" fill="white"/>
<path d="M540 133C540 134.144 544.708 142 549 142C553.292 142 556 135.144 556 134C556 132.855 552.292 136 548 136C543.708 136 540 131.855 540 133Z" fill="#FF0000"/>
<path d="M557 133C557 133 552.763 142.487 548.658 142.676C544.222 142.882 539.014 132.286 539.014 132.286" stroke="black"/>
<path d="M557 133L539.026 132.04" stroke="black" stroke-linecap="round"/>
<line y1="-0.5" x2="10" y2="-0.5" transform="matrix(-1 -0.000783114 -0.000686948 1 543 108)" stroke="black"/>
<line y1="-0.5" x2="10" y2="-0.5" transform="matrix(-0.999994 -0.00345788 -0.00303325 0.999995 564 108)" stroke="black"/>
<line y1="-0.5" x2="15.0033" y2="-0.5" transform="matrix(0.673808 0.7198 0.727287 -0.706347 479.146 230.895)" stroke="#222222"/>
<line y1="-0.5" x2="15.0033" y2="-0.5" transform="matrix(0.673808 0.7198 0.727287 -0.706347 472.319 232.891)" stroke="#222222"/>
<line y1="-0.5" x2="15.0033" y2="-0.5" transform="matrix(0.673808 0.7198 0.727287 -0.706347 465.492 234.887)" stroke="#222222"/>
<circle cx="1.5" cy="1.5" r="1.5" transform="matrix(-1 0 0 1 502 211)" fill="#FFC86E"/>
<circle cx="2" cy="2" r="2" transform="matrix(-1 0 0 1 507 209)" fill="#7D7D7D"/>
<path d="M587 455C587 462.179 607.329 461 624 461C640.671 461 640 455.179 640 448C596.346 443.185 618.671 442 602 442C585.329 442 587 447.821 587 455Z" fill="#FFF4E5"/>
<path d="M568 456C568 463.179 547.672 462 531 462C514.329 462 515 456.179 515 449C558.654 444.185 536.329 443 553 443C569.672 443 568 448.821 568 456Z" fill="#FFF4E5"/>
<line y1="-0.5" x2="9" y2="-0.5" transform="matrix(-0.402876 0.915255 0.893783 0.4485 549 117)" stroke="#DA8759"/>
<line y1="-0.5" x2="5" y2="-0.5" transform="matrix(-0.962687 -0.270617 -0.239415 0.970917 549 126)" stroke="#DA8759"/>
<path d="M134.106 342.739L65.5113 331.781L73.4219 318.422L134.106 342.739Z" fill="white"/>
<path d="M87.5 314C87.5 319.796 83.0056 325.164 75.4665 329.113C67.951 333.05 57.5339 335.5 46 335.5C34.4661 335.5 24.049 333.05 16.5335 329.113C8.99437 325.164 4.5 319.796 4.5 314C4.5 308.204 8.99437 302.836 16.5335 298.887C24.049 294.95 34.4661 292.5 46 292.5C57.5339 292.5 67.951 294.95 75.4665 298.887C83.0056 302.836 87.5 308.204 87.5 314Z" fill="white" stroke="white"/>
<path d="M36.415 319.8C36.415 319.933 36.355 320 36.235 320H34.275C34.1683 320 34.1017 319.94 34.075 319.82L33.515 312.42L31.795 319.86C31.7683 319.953 31.7083 320 31.615 320H29.575C29.4817 320 29.4217 319.953 29.395 319.86L27.675 312.42L27.115 319.82C27.0883 319.94 27.0217 320 26.915 320H24.975C24.8417 320 24.775 319.933 24.775 319.8L25.915 306.18C25.915 306.06 25.975 306 26.095 306H28.115C28.2083 306 28.2683 306.047 28.295 306.14L30.595 315.92L32.895 306.14C32.9217 306.047 32.9817 306 33.075 306H35.095C35.215 306 35.275 306.06 35.275 306.18L36.415 319.8ZM44.2364 306C44.3564 306 44.4164 306.06 44.4164 306.18V319.82C44.4164 319.94 44.3564 320 44.2364 320H42.2764C42.1431 320 42.0764 319.94 42.0764 319.82V314.16H41.4964L39.7964 319.86C39.7697 319.953 39.7097 320 39.6164 320H37.6764C37.6097 320 37.5564 319.98 37.5164 319.94C37.4764 319.887 37.4697 319.827 37.4964 319.76L39.1964 314.1C38.9431 314.033 38.7364 313.947 38.5764 313.84C38.2297 313.64 37.9497 313.36 37.7364 313C37.5231 312.627 37.4164 312.24 37.4164 311.84V308.34C37.4164 308.02 37.4764 307.72 37.5964 307.44C37.7164 307.147 37.8831 306.893 38.0964 306.68C38.3097 306.467 38.5564 306.3 38.8364 306.18C39.1297 306.06 39.4364 306 39.7564 306H44.2364ZM42.0764 311.84V308.34H39.9364C39.8164 308.34 39.7564 308.4 39.7564 308.52V311.64C39.7564 311.773 39.8164 311.84 39.9364 311.84H42.0764ZM52.8106 306C52.9306 306 52.9906 306.06 52.9906 306.18V319.82C52.9906 319.94 52.9306 320 52.8106 320H50.8506C50.7173 320 50.6506 319.94 50.6506 319.82V314.16H50.0706L48.3706 319.86C48.344 319.953 48.284 320 48.1906 320H46.2506C46.184 320 46.1306 319.98 46.0906 319.94C46.0506 319.887 46.044 319.827 46.0706 319.76L47.7706 314.1C47.5173 314.033 47.3106 313.947 47.1506 313.84C46.804 313.64 46.524 313.36 46.3106 313C46.0973 312.627 45.9906 312.24 45.9906 311.84V308.34C45.9906 308.02 46.0506 307.72 46.1706 307.44C46.2906 307.147 46.4573 306.893 46.6706 306.68C46.884 306.467 47.1306 306.3 47.4106 306.18C47.704 306.06 48.0106 306 48.3306 306H52.8106ZM50.6506 311.84V308.34H48.5106C48.3906 308.34 48.3306 308.4 48.3306 308.52V311.64C48.3306 311.773 48.3906 311.84 48.5106 311.84H50.6506ZM61.3848 306C61.5048 306 61.5648 306.06 61.5648 306.18V319.82C61.5648 319.94 61.5048 320 61.3848 320H59.4248C59.2915 320 59.2248 319.94 59.2248 319.82V314.16H58.6448L56.9448 319.86C56.9182 319.953 56.8582 320 56.7648 320H54.8248C54.7582 320 54.7048 319.98 54.6648 319.94C54.6248 319.887 54.6182 319.827 54.6448 319.76L56.3448 314.1C56.0915 314.033 55.8848 313.947 55.7248 313.84C55.3782 313.64 55.0982 313.36 54.8848 313C54.6715 312.627 54.5648 312.24 54.5648 311.84V308.34C54.5648 308.02 54.6248 307.72 54.7448 307.44C54.8648 307.147 55.0315 306.893 55.2448 306.68C55.4582 306.467 55.7048 306.3 55.9848 306.18C56.2782 306.06 56.5848 306 56.9048 306H61.3848ZM59.2248 311.84V308.34H57.0848C56.9648 308.34 56.9048 308.4 56.9048 308.52V311.64C56.9048 311.773 56.9648 311.84 57.0848 311.84H59.2248ZM69.6061 306.22L67.3261 319.84C67.2994 319.947 67.2394 320 67.1461 320H64.3461C64.2528 320 64.1928 319.947 64.1661 319.84L63.8461 317.88C63.8194 317.733 63.8794 317.66 64.0261 317.66H65.3661L65.7461 315.34H64.3461C64.2528 315.34 64.1928 315.287 64.1661 315.18L62.6661 306.22C62.6528 306.153 62.6661 306.1 62.7061 306.06C62.7461 306.02 62.7928 306 62.8461 306H64.8061C64.9261 306 64.9861 306.053 64.9861 306.16L66.1261 313L67.2661 306.16C67.2928 306.053 67.3594 306 67.4661 306H69.4061C69.4728 306 69.5261 306.02 69.5661 306.06C69.6061 306.1 69.6194 306.153 69.6061 306.22Z" fill="#15D1D9"/>
<path d="M138 346C138 346 140.292 349.555 142.417 349.534C144.781 349.51 145.951 345.117 145.951 345.117" stroke="black" stroke-width="0.5"/>
<path d="M676 100L681.415 154.125L703.769 159.648L681.356 167.575L670.651 218.657L666.487 167.436L642.136 159.674L666.546 153.985L676 100Z" fill="#6BF0F6"/>
<path d="M662 277L660.969 299.995L669.964 305.007L661.056 305.824L652.345 342.993L654.17 304.21L645.175 299.198L655.461 298.704L662 277Z" fill="#6BF0F6"/>
<path d="M608 5L615.178 34.9516L628.082 36.8336L615.699 42.002L617.386 93.6259L607.992 43.2803L594.33 40.7455L606.714 35.5771L608 5Z" fill="#6BF0F6"/>
</svg>
